<svg width="211" height="140" viewBox="0 0 211 140" fill="none" xmlns="http://www.w3.org/2000/svg">
<g clip-path="url(#clip0_1365_5943)">
<path d="M176.533 72.6553H32.999V74.7563H176.533V72.6553Z" fill="white"/>
<path d="M157.476 111.973C158.776 110.405 156.542 108.171 155.241 109.738C145.636 121.311 132.396 129.382 117.655 132.35C102.681 135.351 86.8065 132.95 73.4331 125.58C66.1294 121.544 59.7262 116.175 54.4235 109.772C53.1229 108.204 50.8884 110.439 52.1891 112.006C62.0941 123.946 75.9677 132.35 91.1754 135.418C106.917 138.586 123.558 136.152 137.632 128.415C145.203 124.246 151.973 118.61 157.476 111.973Z" fill="white"/>
<path d="M55.3564 21.2604C53.9557 22.7279 56.1902 24.9623 57.5909 23.4949C67.0623 13.6233 79.4019 6.85317 92.8754 4.31856C106.682 1.75059 121.323 3.7516 133.896 10.0881C140.666 13.4899 146.769 18.0255 152.005 23.4949C153.406 24.9623 155.64 22.7279 154.24 21.2604C144.368 10.9552 131.361 3.8183 117.321 1.25034C102.847 -1.41767 87.7394 0.650038 74.4994 7.15332C67.3958 10.6884 60.8926 15.5242 55.3564 21.2604Z" fill="white"/>
<path d="M44.5179 32.7989C49.0202 25.2285 54.8898 18.5918 61.7933 13.1223C63.3941 11.855 61.1263 9.65393 59.5588 10.8879C52.4553 16.5241 46.4189 23.3942 41.7832 31.1981C40.7493 32.9657 43.4841 34.5665 44.5179 32.7989Z" fill="white"/>
<path d="M41.6501 98.6996C40.7496 96.8654 38.0483 98.4662 38.9154 100.3C42.9507 108.605 48.5202 116.075 55.3237 122.345C56.8244 123.712 59.0589 121.478 57.5581 120.11C50.9548 114.007 45.5854 106.77 41.6501 98.6996Z" fill="white"/>
<path d="M147.838 13.1559C154.775 18.6253 160.611 25.262 165.113 32.8325C166.147 34.5667 168.882 32.9993 167.848 31.2317C163.212 23.4278 157.176 16.5576 150.073 10.9214C148.505 9.65413 146.271 11.8886 147.838 13.1559Z" fill="white"/>
<path d="M168.015 98.6996C164.079 106.77 158.71 114.007 152.107 120.11C150.606 121.478 152.84 123.712 154.341 122.345C161.111 116.075 166.681 108.605 170.749 100.3C171.616 98.4662 168.882 96.8654 168.015 98.6996Z" fill="white"/>
<path d="M111.295 32.3237L108.911 24.9877L115.164 20.4685H107.425L105.042 13.1016L102.659 20.4685H94.9512L101.204 24.9877L98.8204 32.3237L105.042 27.8045L111.295 32.3237Z" fill="white"/>
<path d="M127.633 20.8493L125.682 14.9062L123.763 20.8493H117.511L122.556 24.5328L120.637 30.4449L125.682 26.7924L130.759 30.4449L128.809 24.5328L133.854 20.8493H127.633Z" fill="white"/>
<path d="M83.9823 26.7924L89.0587 30.4449L87.1086 24.5328L92.185 20.8493H85.9324L83.9823 14.9062L82.0632 20.8493H75.8105L80.8869 24.5328L78.9369 30.4449L83.9823 26.7924Z" fill="white"/>
<path d="M117.967 114.174L115.9 120.577L121.336 116.608L126.772 120.577L124.704 114.174L130.14 110.205H123.403L121.336 103.835L119.268 110.205H112.531L117.967 114.174Z" fill="#A60D60"/>
<path d="M84.8267 114.174L82.759 120.578L88.1951 116.609L93.6311 120.578L91.5634 114.174L96.9995 110.206H90.2628L88.1951 103.836L86.094 110.206H79.3906L84.8267 114.174Z" fill="#A60D60"/>
<path d="M70.6317 68.9072H64.9408V65.8504C59.8353 65.265 56.811 62.8586 56.811 58.0783V57.8832H62.9246V58.5661C62.9246 60.0295 63.4449 60.4197 67.5423 60.4197C71.2495 60.4197 71.6398 60.127 71.6398 59.1514C71.6398 58.371 71.217 58.0458 69.4285 57.8182L62.5994 56.9076C58.5345 56.3548 56.4858 54.176 56.4858 50.6639C56.4858 47.5096 58.6971 44.2251 64.9408 43.6398V40.6155H70.6317V43.8674C75.1193 44.778 77.2981 47.5096 77.2981 51.4444V51.6395H71.1845V51.1517C71.1845 49.5908 70.5016 49.0705 66.4042 49.0705C63.2823 49.0705 62.5994 49.4933 62.5994 50.4363C62.5994 51.1192 62.9897 51.4444 64.1604 51.607L70.9894 52.6151C76.3225 53.3955 77.7534 56.1272 77.7534 58.9238C77.7534 62.0782 75.7047 64.9399 70.6317 65.7528V68.9072ZM89.4471 65.9805C82.2278 65.9805 78.5531 63.8342 78.5531 58.6962V58.5011H84.8619V58.6962C84.8619 59.9644 85.5773 60.4197 89.5446 60.4197C93.0892 60.4197 93.6745 59.7693 93.6745 57.9808C93.6745 56.1272 93.0892 55.4768 89.5446 55.4768C86.7154 55.4768 85.2846 55.7044 84.8619 56.8426H78.6507L79.9515 43.8674H98.8776V49.3632H85.3822L84.7968 53.8183H85.122C85.6098 52.5175 87.691 50.6965 92.1787 50.6965C97.8045 50.6965 100.178 53.3955 100.178 57.9157C100.178 62.7611 97.0565 65.9805 89.4471 65.9805ZM120.685 65.6553H114.572V61.7205H100.816V57.5905L113.596 43.8674H120.685V56.2247H123.612V61.7205H120.685V65.6553ZM109.336 56.2247H114.572V50.8591H114.149L109.336 55.802V56.2247ZM130.366 65.6553H124.253V43.8674H132.545L136.545 52.9078L138.691 58.5336H139.114L141.163 52.9078L144.967 43.8674H153.26V65.6553H147.146V56.6475L147.374 53.0053H146.951L145.715 56.6475L142.463 64.3545H135.049L131.797 56.6475L130.561 53.0053H130.139L130.366 56.6475V65.6553Z" fill="#A60D60"/>
<path d="M73.9494 81.2144H81.4137V83.3189H76.169V86.1797H80.8876V88.2841H76.169V92.9863H73.9494V81.2144ZM87.0961 93.2494C86.4055 93.2494 85.7753 93.1398 85.2053 92.9206C84.6463 92.6904 84.1695 92.3616 83.7749 91.9341C83.3803 91.5066 83.0734 90.9915 82.8542 90.3886C82.635 89.7748 82.5254 89.0788 82.5254 88.3006V81.2144H84.745V88.4321C84.745 88.8267 84.7943 89.1884 84.8929 89.5172C84.9916 89.8461 85.1396 90.131 85.3368 90.3722C85.5341 90.6133 85.7808 90.8051 86.0767 90.9476C86.3726 91.0791 86.7124 91.1449 87.0961 91.1449C87.4906 91.1449 87.8359 91.0791 88.1319 90.9476C88.4278 90.8051 88.6744 90.6133 88.8717 90.3722C89.069 90.131 89.217 89.8461 89.3156 89.5172C89.4143 89.1884 89.4636 88.8267 89.4636 88.4321V81.2144H91.6832V88.3006C91.6832 89.035 91.5735 89.709 91.3543 90.3229C91.1461 90.9257 90.8392 91.4463 90.4336 91.8848C90.039 92.3122 89.5568 92.6465 88.9868 92.8877C88.4278 93.1288 87.7975 93.2494 87.0961 93.2494ZM93.4579 81.2144H96.0392L100.774 89.1062H100.906L100.774 86.8373V81.2144H102.977V92.9863H100.643L95.6446 84.6506H95.513L95.6446 86.9195V92.9863H93.4579V81.2144ZM105.01 81.2144H108.989C109.921 81.2144 110.759 81.3569 111.505 81.6419C112.25 81.9269 112.886 82.3324 113.412 82.8585C113.938 83.3737 114.338 83.993 114.612 84.7164C114.897 85.4398 115.04 86.2345 115.04 87.1004C115.04 87.9772 114.897 88.7774 114.612 89.5008C114.338 90.2242 113.938 90.8435 113.412 91.3586C112.886 91.8738 112.25 92.2739 111.505 92.5589C110.759 92.8438 109.921 92.9863 108.989 92.9863H105.01V81.2144ZM108.891 90.8819C109.537 90.8819 110.107 90.7942 110.6 90.6188C111.094 90.4325 111.505 90.1749 111.834 89.8461C112.162 89.5172 112.409 89.1226 112.573 88.6623C112.738 88.191 112.82 87.6703 112.82 87.1004C112.82 86.5304 112.738 86.0153 112.573 85.5549C112.409 85.0836 112.162 84.6835 111.834 84.3547C111.505 84.0259 111.094 83.7738 110.6 83.5984C110.107 83.4121 109.537 83.3189 108.891 83.3189H107.23V90.8819H108.891ZM118.718 83.3189V86.0481H123.437V88.1526H118.718V90.8819H123.963V92.9863H116.499V81.2144H123.963V83.3189H118.718ZM125.675 81.2144H129.654C130.585 81.2144 131.424 81.3569 132.169 81.6419C132.915 81.9269 133.55 82.3324 134.076 82.8585C134.603 83.3737 135.003 83.993 135.277 84.7164C135.562 85.4398 135.704 86.2345 135.704 87.1004C135.704 87.9772 135.562 88.7774 135.277 89.5008C135.003 90.2242 134.603 90.8435 134.076 91.3586C133.55 91.8738 132.915 92.2739 132.169 92.5589C131.424 92.8438 130.585 92.9863 129.654 92.9863H125.675V81.2144ZM129.555 90.8819C130.202 90.8819 130.772 90.7942 131.265 90.6188C131.758 90.4325 132.169 90.1749 132.498 89.8461C132.827 89.5172 133.073 89.1226 133.238 88.6623C133.402 88.191 133.485 87.6703 133.485 87.1004C133.485 86.5304 133.402 86.0153 133.238 85.5549C133.073 85.0836 132.827 84.6835 132.498 84.3547C132.169 84.0259 131.758 83.7738 131.265 83.5984C130.772 83.4121 130.202 83.3189 129.555 83.3189H127.895V90.8819H129.555Z" fill="white"/>
</g>
<defs>
<clipPath id="clip0_1365_5943">
<rect width="209.606" height="139.604" fill="white" transform="translate(0.695312 0.116211)"/>
</clipPath>
</defs>
</svg>
