<svg width="80" height="80" viewBox="0 0 80 80" fill="none" xmlns="http://www.w3.org/2000/svg">
<circle cx="40" cy="40" r="40" fill="url(#paint0_linear_0_4538)"/>
<path d="M38.1959 21.2451C37.7253 21.5474 29.67 28.0891 29.5524 28.2661C29.3563 28.5316 29.3641 29.2027 29.5602 29.483C29.8975 29.955 29.9524 29.9697 32.1407 29.9697H34.1173V44.4248V58.8799H38.4547C42.5647 58.8799 42.7921 58.8725 43.0117 58.7398C43.498 58.4374 43.5294 58.3268 43.5294 56.6969V55.2071L42.9647 54.8974C40.1881 53.356 38.1802 51.0328 37.1684 48.1861C36.3213 45.8039 36.3213 43.0383 37.1762 40.6488C38.1723 37.8389 40.2116 35.4715 42.9098 33.9891L43.5294 33.6425V31.8061V29.9697H45.5138C47.6943 29.9697 47.7492 29.955 48.0864 29.483C48.2825 29.2027 48.2904 28.5316 48.0943 28.2661C47.9766 28.0891 39.9214 21.5474 39.4508 21.2451C39.3253 21.1639 39.1057 21.1197 38.8233 21.1197C38.541 21.1197 38.3214 21.1639 38.1959 21.2451Z" fill="white"/>
<path d="M47.5373 34.5869C43.2548 35.2654 39.6938 38.6211 38.9487 42.6921C38.784 43.5623 38.784 45.2881 38.9487 46.1583C39.7017 50.2662 43.2704 53.6071 47.6079 54.2709C48.5648 54.411 50.2589 54.411 51.2158 54.2709C55.0513 53.6809 58.424 50.9521 59.5926 47.4785C59.9456 46.446 60.0789 45.5978 60.0789 44.4252C60.0789 43.2526 59.9456 42.4044 59.5926 41.3719C58.4161 37.8836 55.0591 35.1695 51.2002 34.5795C50.2982 34.4394 48.4314 34.4468 47.5373 34.5869ZM49.9923 36.8953C50.4315 37.1682 50.5099 37.3747 50.5099 38.2744V39.0931L51.0825 39.3586C51.7178 39.6536 52.3375 40.1256 52.51 40.4501C52.9414 41.2244 52.0708 42.1684 51.1923 41.8808C51.0354 41.8292 50.8001 41.7038 50.659 41.5932C50.2354 41.2613 49.8432 41.1064 49.3962 41.1064C48.6667 41.1064 48.2353 41.5194 48.2353 42.1979C48.2353 42.965 48.604 43.26 49.6785 43.3853C50.9962 43.5328 52.0316 44.2187 52.5728 45.2881C52.8081 45.7601 52.8238 45.8338 52.8238 46.6377C52.8238 47.4342 52.8081 47.5153 52.5806 47.9652C52.2512 48.6142 51.6472 49.219 51.0198 49.5214L50.5099 49.7721V50.5834C50.5099 51.4757 50.4315 51.6822 49.9923 51.9551C49.7021 52.1321 49.1609 52.1395 48.8471 51.9625C48.4157 51.7265 48.2902 51.4241 48.251 50.517L48.2118 49.6984L47.6706 49.455C47.0902 49.1895 46.1882 48.4594 45.9843 48.0906C45.8117 47.7735 45.8823 47.2056 46.1255 46.9622C46.4235 46.6598 46.7294 46.5418 47.1137 46.5861C47.3961 46.6156 47.5373 46.6893 47.9059 47.0286C48.4942 47.5522 48.902 47.744 49.4275 47.744C50.157 47.744 50.5884 47.331 50.5884 46.6451C50.5884 46.1952 50.408 45.856 50.0629 45.6642C49.9452 45.5978 49.5295 45.5093 49.1452 45.4651C47.8275 45.3176 46.7921 44.6317 46.2509 43.5623C46.0156 43.0903 46 43.0166 46 42.2053C46 41.3719 46.0078 41.3498 46.298 40.7967C46.6353 40.1477 47.302 39.5134 47.8667 39.2922L48.2197 39.1594L48.251 38.3408C48.2902 37.4263 48.3922 37.1608 48.8001 36.91C49.1295 36.7109 49.6864 36.7035 49.9923 36.8953Z" fill="white"/>
<path d="M27.5753 36.8211C27.4576 36.8949 27.2851 37.0571 27.2066 37.1678C27.0655 37.3743 27.0576 37.7283 27.0576 48.1271V58.8799H29.4107H31.7637V47.7805V36.681H29.7871C27.9753 36.681 27.7871 36.6958 27.5753 36.8211Z" fill="white"/>
<path d="M20.4386 45.6712C20.3209 45.7449 20.1484 45.9072 20.0699 46.0178C19.9287 46.2243 19.9209 46.4751 19.9209 52.2055C19.9209 57.9359 19.9287 58.1866 20.0699 58.3931C20.4072 58.8651 20.4621 58.8799 22.6896 58.8799H24.7054V52.2055V45.5311H22.6896C20.8386 45.5311 20.6503 45.5458 20.4386 45.6712Z" fill="white"/>
<defs>
<linearGradient id="paint0_linear_0_4538" x1="40" y1="0" x2="40" y2="80" gradientUnits="userSpaceOnUse">
<stop stop-color="#A60D60"/>
<stop offset="1" stop-color="#A60D60" stop-opacity="0"/>
</linearGradient>
</defs>
</svg>
