<svg width="185" height="137" viewBox="0 0 185 137" fill="none" xmlns="http://www.w3.org/2000/svg">
<g clip-path="url(#clip0_1365_5986)">
<path d="M160.872 79.4053C160.872 79.4053 160.872 80.1431 160.48 81.2497C160.48 81.6186 160.48 81.9875 160.087 82.3564C160.087 82.7253 160.087 83.0942 160.087 83.0942V83.4631C160.087 83.832 160.087 84.2009 160.087 84.9387L159.303 87.1521C159.303 87.1521 159.303 87.8898 158.91 88.2587C158.518 88.9965 158.518 89.3654 158.518 89.3654C158.518 89.7343 158.126 90.1032 157.733 90.4721V90.841C157.733 90.841 157.341 91.5788 156.949 92.6855C156.949 93.0544 156.556 93.4233 156.556 93.7922C156.556 94.1611 156.164 94.1611 156.164 94.1611C158.518 94.1611 160.48 92.3166 161.657 90.1032C161.657 90.1032 162.049 89.3654 162.049 88.9965C162.441 88.2587 162.441 87.8899 162.441 87.8899L163.226 85.3076C163.618 84.2009 163.618 82.7253 163.226 81.6186C162.441 80.8809 161.657 80.1431 160.872 79.4053Z" fill="white"/>
<path d="M159.695 82.7253C160.087 82.7253 161.264 72.7651 161.264 72.7651C161.264 71.6584 160.48 70.5518 159.303 70.5518C158.126 70.5518 156.949 71.2895 156.949 72.3962C157.341 72.3962 155.772 81.6186 155.379 81.6186C154.987 82.7253 155.772 83.832 156.949 84.2009C158.126 84.5698 159.303 84.2009 159.695 82.7253Z" fill="white"/>
<path d="M153.027 86.7836C153.027 86.4147 153.419 85.677 153.419 85.677L154.204 83.4636C154.204 83.0947 154.596 82.7258 154.988 82.3569V81.988V81.6191C154.988 81.2502 154.988 80.8813 155.381 80.5124C155.381 79.7747 155.773 78.668 155.773 78.668C154.596 79.0369 153.811 79.4058 153.027 80.1435C152.242 80.8813 151.457 81.6191 151.457 82.7258L151.065 84.9392C151.065 84.9392 151.065 85.3081 150.673 86.0459C150.673 86.4148 150.28 87.1525 150.28 87.1525C149.496 88.997 150.28 91.2104 151.85 93.0549C151.85 93.0549 151.85 92.686 152.242 92.686C152.242 92.3171 152.634 91.9482 152.634 91.5793C153.027 90.8415 153.419 90.1037 153.419 90.1037C153.419 90.1037 153.419 89.7348 153.811 89.7348C153.811 89.3659 153.811 88.997 153.811 88.6281C152.634 87.8903 153.027 87.1525 153.027 86.7836Z" fill="white"/>
<path d="M154.203 98.9568C153.811 99.3257 153.811 99.6946 153.419 100.063C153.419 100.432 153.026 100.432 153.026 100.432C153.026 100.432 153.026 100.801 152.634 100.801C152.634 101.17 152.634 101.539 152.242 102.277L151.065 104.49C151.065 104.49 150.672 104.859 150.28 105.597C149.888 105.966 149.496 106.704 149.496 106.704C149.103 107.072 148.711 107.441 148.319 107.441C148.319 107.441 148.319 107.81 147.926 107.81C147.926 107.81 147.142 108.548 146.749 109.286C146.357 109.655 145.965 110.024 145.965 110.393C145.572 110.761 145.572 110.761 145.572 110.761C147.926 111.13 150.28 110.393 151.849 108.179C151.849 108.179 152.242 107.81 152.634 107.072C153.026 106.704 153.419 105.966 153.419 105.966L154.988 103.752C156.557 101.539 156.165 98.9568 154.596 97.1123C154.988 97.1123 154.596 97.8501 154.203 98.9568Z" fill="white"/>
<path d="M149.496 100.801C150.673 101.539 151.85 101.17 152.634 100.063C152.634 100.063 153.027 99.6943 153.419 98.5876C153.811 97.8498 154.596 96.7431 154.988 95.6364C155.381 94.8986 155.381 94.5297 155.773 94.1608C156.165 93.7919 156.165 93.0542 156.558 92.6853C156.95 91.9475 156.95 91.2097 156.95 91.2097C157.342 90.103 156.95 88.9963 155.773 88.6274C154.596 88.2585 153.419 88.9963 153.027 89.7341C153.027 89.7341 152.634 90.103 152.634 91.2097C152.634 91.5786 152.242 91.9475 152.242 92.6853C151.85 93.0542 151.85 93.7919 151.457 94.1608C151.065 95.2675 150.28 96.3742 149.888 97.112C149.496 97.8498 149.103 98.5876 149.103 98.5876C148.319 98.9565 148.711 100.432 149.496 100.801Z" fill="white"/>
<path d="M141.648 107.072C141.648 107.072 141.648 107.072 142.04 106.703C142.433 106.334 142.433 105.965 142.825 105.596C143.217 104.859 144.002 104.121 144.002 104.121L144.394 103.752C144.394 103.383 144.787 103.014 144.787 102.645C144.787 102.645 145.179 102.276 145.571 101.907C145.964 101.539 146.356 100.801 146.356 100.801L147.533 98.9563C147.925 98.5874 147.925 98.2185 148.317 98.2185C148.317 98.2185 148.317 97.8496 148.71 97.8496C148.71 97.8496 148.71 97.8496 149.102 97.4807C149.102 97.1118 149.494 96.7429 149.494 96.374C149.887 95.6362 150.279 94.8984 150.279 94.8984C147.925 94.8984 145.964 96.0051 144.787 97.8496L143.61 99.6941C143.61 99.6941 143.217 100.063 143.217 100.432C142.825 100.801 142.433 101.17 142.433 101.17C140.471 103.014 140.471 105.227 141.648 107.072Z" fill="white"/>
<path d="M142.433 114.081C142.041 114.45 141.649 114.819 141.649 115.188C141.256 115.557 141.256 115.557 141.256 115.557L140.864 115.926C140.864 116.294 140.472 116.663 140.079 117.032L138.118 118.508C138.118 118.508 137.725 118.877 137.333 119.246C136.941 119.614 136.941 119.614 136.548 119.614L136.156 119.983C135.764 120.352 135.371 120.352 134.979 120.721L134.587 121.09L131.448 123.303C133.41 124.41 136.156 124.041 138.51 122.566C138.51 122.566 138.51 122.566 138.902 122.197C139.295 122.197 139.295 121.828 139.687 121.459C140.079 121.09 140.864 120.721 140.864 120.721L142.826 118.877C144.787 117.032 145.18 114.45 144.395 112.605C144.003 112.605 143.218 113.343 142.433 114.081Z" fill="white"/>
<path d="M133.41 110.393L131.84 111.868C131.84 111.868 131.448 112.237 131.056 112.606C130.663 112.975 130.663 112.975 130.271 112.975L129.879 113.344C127.917 114.451 127.525 116.664 127.917 118.877L130.663 116.664C130.663 116.664 131.056 116.664 131.056 116.295C131.056 115.926 131.448 115.557 131.84 115.188C131.84 115.188 131.84 115.188 132.233 114.82C132.233 114.82 132.625 114.451 133.017 114.451C133.41 114.082 133.802 113.713 133.802 113.713L135.371 112.237C135.763 111.868 136.156 111.868 136.548 111.499C136.548 111.499 136.548 111.131 136.94 111.131C136.94 111.131 136.94 111.131 137.333 110.762C137.725 110.393 137.725 110.393 138.117 110.024C138.902 109.286 139.294 108.917 139.294 108.917C137.725 108.548 135.371 108.917 133.41 110.393Z" fill="white"/>
<path d="M147.532 107.072C148.317 105.965 147.925 104.859 147.14 104.121C146.355 103.383 144.786 103.752 144.001 104.49C144.001 104.49 143.609 104.859 143.217 105.596C142.824 105.965 142.432 106.334 142.432 106.703C142.04 107.072 141.647 107.441 141.255 108.179C140.471 108.917 139.686 110.023 138.901 110.392C138.509 110.761 138.509 111.13 138.117 111.13C137.724 111.13 137.724 111.499 137.724 111.499C136.94 112.237 136.94 113.343 137.724 114.45C138.509 115.188 140.078 115.188 140.863 114.45C140.863 114.45 140.863 114.45 141.255 114.081C141.647 113.712 141.647 113.712 142.04 113.343C142.824 112.605 143.609 111.868 144.394 110.761C144.786 110.392 145.178 110.023 145.571 109.285C145.963 108.917 146.355 108.548 146.748 108.179C147.14 107.81 147.532 107.072 147.532 107.072Z" fill="white"/>
<path d="M125.956 125.886C125.564 126.255 125.564 126.255 125.564 126.255H125.171C124.779 126.624 124.387 126.993 123.994 126.993L121.64 128.1L119.286 129.206C118.894 129.206 118.11 129.575 117.717 129.206C117.717 129.206 117.325 129.206 117.325 129.575L113.794 130.682C115.363 132.157 118.11 132.526 120.856 131.789L123.21 130.682L125.564 129.575C126.348 129.206 126.741 128.837 127.133 128.468C127.525 128.1 127.918 127.731 128.31 126.993C129.095 125.886 129.095 124.78 129.095 123.673C129.095 123.673 128.31 124.042 127.525 124.78C126.741 125.517 126.348 125.886 125.956 125.886Z" fill="white"/>
<path d="M121.248 119.246C120.855 119.246 120.071 119.615 119.679 119.615L117.717 120.353C117.717 120.353 115.755 121.46 115.755 121.091C113.794 121.829 112.224 123.673 111.832 125.886L115.363 124.78H115.755C116.148 124.411 116.54 124.042 116.932 124.042L119.286 122.935L121.248 121.829C121.64 121.46 122.032 121.46 122.425 121.46C122.425 121.46 122.817 121.46 122.817 121.091C122.817 121.091 123.209 121.091 123.209 120.722C123.602 120.722 123.994 120.353 124.386 119.984C125.171 119.615 125.956 119.246 125.956 119.246C125.171 118.509 123.994 118.14 122.817 118.14C122.032 118.877 121.64 118.877 121.248 119.246Z" fill="white"/>
<path d="M133.801 120.353C134.978 119.615 134.978 118.509 134.194 117.402C133.409 116.664 132.232 116.295 131.055 117.033C131.055 117.033 130.663 117.402 129.878 117.771C129.093 118.14 128.309 118.877 127.132 119.615C125.955 120.353 125.17 120.722 124.385 121.46C123.993 121.829 123.601 121.829 123.601 122.198C123.208 122.198 123.208 122.566 123.208 122.566C122.032 122.935 121.639 124.042 122.424 125.149C122.816 126.255 124.385 126.624 125.562 125.886C125.562 125.886 125.562 125.886 125.955 125.518C126.347 125.518 126.739 125.149 127.132 124.78C127.916 124.411 129.093 123.673 130.27 122.935C131.447 122.198 132.624 121.46 133.409 121.091C133.409 120.722 133.801 120.353 133.801 120.353Z" fill="white"/>
<path d="M106.34 132.895C105.947 133.264 105.555 133.264 105.163 133.264L102.416 133.633L99.67 134.001C99.2777 134.001 98.493 134.001 98.1007 133.633H97.7084L93.7852 134.001C94.9621 135.846 97.3161 137.322 100.062 136.953L102.809 136.584L105.555 136.215C106.34 136.215 106.732 135.846 107.516 135.846C107.909 135.477 108.693 135.108 109.086 134.739C109.87 134.001 110.655 132.895 110.655 131.788L106.732 132.526C106.732 132.895 106.34 132.895 106.34 132.895Z" fill="white"/>
<path d="M106.339 124.779C105.947 124.779 105.162 124.41 104.77 124.41C104.378 124.41 103.593 124.41 103.201 124.41L100.847 124.779L98.4928 125.148C96.1388 125.148 94.5696 126.624 93.3926 128.837H96.9235H97.3158C97.7081 128.468 98.1005 128.468 98.4928 128.468L100.847 128.099L103.201 127.73C103.593 127.73 103.985 127.73 104.77 127.73H105.162L108.693 126.992C108.301 125.886 107.516 125.148 106.339 124.779Z" fill="white"/>
<path d="M116.931 129.206C118.108 128.837 118.5 127.731 118.108 126.624C117.715 125.517 116.539 125.148 115.362 125.517C115.362 125.517 114.969 125.886 113.792 125.886C113.008 126.255 111.831 126.624 110.654 126.993C108.3 127.731 105.946 128.099 105.946 128.099C104.769 128.468 103.984 129.206 104.376 130.313C104.376 131.42 105.553 132.157 107.123 131.788C107.123 131.788 109.869 131.051 112.223 130.682C113.4 130.313 114.577 129.944 115.754 129.575C116.146 129.575 116.931 129.206 116.931 129.206Z" fill="white"/>
<path d="M86.3312 133.633C85.9389 133.633 85.5466 134.002 84.762 134.002L82.0157 133.633L80.0541 133.264C79.6617 133.264 79.2694 132.895 78.8771 132.895H78.4848L74.5615 132.157C74.9538 133.264 75.3462 134.371 76.1308 135.108C76.5231 135.477 76.9155 135.846 77.7001 136.215C78.0924 136.584 78.8771 136.584 79.6617 136.584L82.408 136.953L85.1543 137.322C87.9005 137.322 90.2545 136.215 91.4315 134.371L87.5082 134.002C86.7236 134.002 86.7236 134.002 86.3312 133.633Z" fill="white"/>
<path d="M85.9375 125.148L83.5835 124.779L81.2296 124.41C80.8373 124.41 80.0526 124.41 79.6603 124.41C79.268 124.41 78.4833 124.41 78.091 124.779C76.914 125.148 76.1294 125.886 75.3447 126.624L78.8756 127.361H79.268C79.6603 127.361 80.0526 126.992 80.8373 127.361L83.1912 127.73L85.5452 128.099C85.9375 128.099 86.3298 128.099 86.7221 128.468H87.1144H90.6454C90.253 126.992 88.2914 125.517 85.9375 125.148Z" fill="white"/>
<path d="M99.2777 132.526C99.67 132.157 99.67 131.419 99.67 131.051C99.67 130.313 99.2777 129.944 98.8854 129.575C98.4931 129.206 98.1007 129.206 97.3161 129.206C97.3161 129.206 94.9621 129.206 92.2159 129.575C89.8619 129.575 87.1157 129.206 87.1157 129.206C86.7233 129.206 85.9387 129.206 85.5464 129.575C85.154 129.944 84.7617 130.313 84.7617 131.051C84.7617 131.419 84.7617 132.157 85.154 132.526C85.5464 132.895 85.9387 133.264 86.7233 133.264C86.7233 133.264 89.4696 133.264 92.2159 133.633C94.9621 133.633 97.7084 133.264 97.7084 133.264C98.4931 133.264 98.8854 132.895 99.2777 132.526Z" fill="white"/>
<path d="M67.1062 129.575C66.7138 129.575 65.9292 129.575 65.5369 129.575L63.1829 128.468L60.829 127.361C60.4367 126.992 60.0443 126.992 59.652 126.624H59.2597C59.2597 126.624 58.8674 126.624 58.8674 126.255C58.475 126.255 58.0827 125.886 57.6904 125.517C56.9057 125.148 56.1211 124.41 56.1211 124.41C56.1211 125.517 56.1211 126.624 56.9057 127.73C57.2981 128.099 57.6904 128.837 58.0827 129.206C58.475 129.575 59.2597 129.944 59.652 130.312L62.006 131.419L64.3599 132.526C67.1062 133.264 69.4601 132.895 71.4217 131.419L67.8908 130.312C67.4985 129.944 67.4985 129.575 67.1062 129.575Z" fill="white"/>
<path d="M69.4612 121.46L67.4995 120.722L65.5379 119.984C65.1456 119.615 64.361 119.615 63.9686 119.615C63.5763 119.615 62.7917 119.615 62.3993 119.615C61.2224 119.615 60.4377 119.984 59.2607 120.722C59.2607 120.722 60.0454 121.091 60.83 121.46C61.2224 121.829 61.6147 121.829 62.007 122.197C62.3993 122.197 62.3993 122.566 62.3993 122.566C62.3993 122.566 62.7917 122.566 62.7917 122.935C63.184 122.935 63.5763 122.935 63.9686 123.304L65.9303 124.411C65.9303 124.411 67.8919 125.518 68.2842 125.518C68.6765 125.518 69.0688 125.886 69.4612 126.255H69.8535L73.3844 127.362C72.5998 124.042 71.4228 122.197 69.4612 121.46Z" fill="white"/>
<path d="M80.8384 130.313C81.2308 129.206 80.4461 128.099 79.2691 128.099C79.2691 128.099 76.9152 127.362 74.5612 126.993C73.3843 126.624 72.2073 126.255 71.4226 125.886C70.638 125.517 69.8534 125.517 69.8534 125.517C68.6764 125.148 67.4994 125.517 67.1071 126.624C66.7148 127.731 67.1071 128.837 68.2841 129.206C68.2841 129.206 69.0687 129.575 69.8534 129.575C70.638 129.944 72.2073 130.313 73.3843 130.682C76.1305 131.42 78.4845 131.788 78.4845 131.788C79.2691 132.526 80.4461 131.42 80.8384 130.313Z" fill="white"/>
<path d="M49.844 120.353C49.4517 120.353 49.0594 119.984 48.667 119.615C48.667 119.615 48.667 119.615 48.2747 119.246C47.8824 119.246 47.8824 118.877 47.4901 118.877C47.0977 118.509 46.7054 118.14 46.7054 118.14L44.7438 116.664C44.3515 116.295 43.9591 115.926 43.9591 115.557C43.9591 115.557 43.5668 115.557 43.5668 115.188C43.5668 115.188 43.5668 115.188 43.1745 114.82C42.7822 114.451 42.7822 114.082 42.3898 113.713C41.6052 112.975 41.2129 112.237 41.2129 112.237C40.4282 114.082 40.8205 117.033 42.7822 118.509L44.7438 120.353C44.7438 120.353 45.1361 120.722 45.9208 121.091C46.3131 121.46 46.3131 121.46 46.7054 121.829C47.0977 121.829 47.0977 122.197 47.0977 122.197C49.4517 123.673 51.8056 124.042 54.1596 122.935L49.844 120.353C50.2363 120.722 50.2363 120.722 49.844 120.353Z" fill="white"/>
<path d="M54.5525 112.975C54.1602 112.606 53.7679 112.606 53.7679 112.237C53.3755 111.868 52.9832 111.499 52.9832 111.499L51.4139 110.023C49.8446 108.548 47.4907 108.179 45.1367 108.917C45.1367 108.917 45.9214 109.655 46.3137 110.023C46.706 110.392 47.0983 110.761 47.0983 110.761C47.4907 111.13 47.4907 111.13 47.4907 111.13L47.883 111.499C48.2753 111.499 48.6676 111.868 49.06 112.237L50.6293 113.712C50.6293 113.712 51.0216 114.081 51.4139 114.45C51.8062 114.819 51.8062 114.819 52.1986 114.819L52.5909 115.188C52.9832 115.557 53.3755 115.926 53.3755 116.295C53.3755 116.295 53.7679 116.295 53.7679 116.664L56.5141 118.877C56.9064 116.664 56.5141 114.45 54.5525 112.975Z" fill="white"/>
<path d="M59.2612 125.518C59.6536 125.518 59.6536 125.886 59.6536 125.886C60.8305 126.255 62.0075 125.886 62.7921 125.149C63.1845 124.042 62.7921 122.935 62.0075 122.566C62.0075 122.566 62.0075 122.566 61.6152 122.198C61.2229 122.198 61.2229 121.829 60.8305 121.46C60.0459 121.091 58.8689 120.353 58.0843 119.615C56.9073 118.877 56.1226 118.14 55.338 117.771C54.5533 117.402 54.161 117.033 54.161 117.033C53.3764 116.295 51.8071 116.664 51.0224 117.402C50.2378 118.14 50.6301 119.615 51.4148 120.353C51.4148 120.353 51.8071 120.722 52.5917 121.46C53.3764 122.198 54.5533 122.935 55.7303 123.304C56.9073 124.042 58.0843 124.78 58.8689 125.149L59.2612 125.518Z" fill="white"/>
<path d="M37.682 108.917C37.2897 108.179 36.505 107.441 36.505 107.441C36.505 107.441 36.505 107.072 36.1127 107.072C35.7204 106.704 35.3281 106.704 34.9357 106.335C34.9357 106.335 34.5434 105.966 34.1511 105.228C33.7588 104.859 33.3664 104.121 33.3664 104.121L32.1895 101.908C32.1895 101.539 31.7971 101.17 31.7971 100.801L31.4048 100.432C31.4048 100.432 31.4048 100.063 31.0125 100.063C31.0125 99.6946 30.6202 99.3257 30.2278 98.9568C29.8355 98.219 29.4432 97.1123 29.4432 97.1123C27.8739 98.9568 27.8739 101.539 29.0509 103.752L30.6202 105.966C30.6202 105.966 31.0125 106.335 31.4048 107.072C31.7971 107.441 32.1895 108.179 32.1895 108.179C33.7588 110.393 36.505 111.13 38.4667 110.761C38.4667 110.761 38.4667 110.761 38.0743 110.393C38.4667 109.655 38.0743 109.286 37.682 108.917Z" fill="white"/>
<path d="M43.5679 114.45C43.9602 114.819 43.9602 114.819 43.5679 114.45C44.7449 115.557 46.3142 115.557 47.0988 114.819C47.8835 114.081 47.8835 112.606 47.0988 111.868C47.0988 111.868 47.0988 111.868 46.7065 111.499C46.7065 111.13 46.3142 111.13 45.9219 110.761C45.1372 110.023 44.3526 109.286 43.5679 108.548C43.1756 108.179 42.7833 107.81 42.3909 107.072C41.9986 106.703 41.6063 106.335 41.6063 105.966C41.214 105.228 40.8216 104.859 40.8216 104.859C39.6447 104.121 38.4677 103.752 37.2907 104.49C36.5061 105.228 36.1138 106.335 36.8984 107.441C36.8984 107.441 37.2907 107.81 38.0754 108.548C38.4677 108.917 38.86 109.286 39.2523 109.655C39.6447 110.023 40.037 110.392 40.4293 111.13C41.214 112.237 42.3909 112.975 42.7833 113.712C43.1756 114.081 43.5679 114.45 43.5679 114.45Z" fill="white"/>
<path d="M36.5058 98.2185C36.8981 98.5874 37.2905 98.5874 37.2905 98.9563L38.4674 100.801C38.4674 100.801 38.8598 101.17 39.2521 101.907C39.6444 102.276 40.0367 102.645 40.0367 102.645C40.4291 103.014 40.4291 103.383 40.4291 103.752L40.8214 104.121C40.8214 104.121 41.2137 104.859 41.9984 105.596C42.3907 105.965 42.3907 106.334 42.783 106.703C42.783 107.072 43.1753 107.072 43.1753 107.072C43.96 105.227 43.96 102.645 42.783 101.17C42.783 101.17 42.3907 100.801 41.9984 100.432C41.606 100.063 41.606 99.6941 41.606 99.6941L40.4291 97.8496C39.2521 96.0051 37.2905 94.8984 34.9365 94.8984C34.9365 94.8984 35.3288 95.6362 35.7212 96.374C36.1135 96.7429 36.1135 97.1118 36.1135 97.4807C36.1135 97.8496 36.5058 97.8496 36.5058 97.8496V98.2185Z" fill="white"/>
<path d="M27.8744 93.0544C27.4821 92.3166 27.0898 91.2099 27.0898 91.2099V90.841C26.6974 90.4721 26.3051 90.1032 26.3051 89.7343C26.3051 89.7343 25.9128 88.9965 25.9128 88.6276C25.9128 87.8898 25.5205 87.521 25.5205 87.521L24.7358 85.3076C24.7358 84.9387 24.7358 84.2009 24.7358 83.832V83.4631C24.7358 83.4631 24.7358 83.0942 24.7358 82.7253C24.7358 82.3564 24.3435 81.9875 24.3435 81.6186C23.9512 80.1431 23.9512 79.4053 23.9512 79.4053C23.1665 80.1431 22.3819 80.8809 21.9896 81.9875C21.5972 83.0942 21.5972 84.2009 21.9896 85.6765L22.7742 88.2587C22.7742 88.2587 22.7742 88.9965 23.1665 89.3654C23.5589 90.1032 23.5589 90.4721 23.5589 90.4721C24.3435 93.0544 26.6974 94.53 29.0514 94.53C29.0514 94.53 29.0514 94.1611 28.6591 94.1611C28.2667 93.7922 27.8744 93.4233 27.8744 93.0544Z" fill="white"/>
<path d="M32.1906 89.3654C32.1906 89.3654 32.5829 90.1032 32.9753 90.841C32.9753 91.2099 33.3676 91.5788 33.3676 91.9477C33.3676 92.3166 33.7599 92.3166 33.7599 92.3166C35.3292 90.841 36.1139 88.6276 35.3292 86.4143C35.3292 86.4143 35.3292 86.0454 34.9369 85.3076C34.9369 84.9387 34.5446 84.2009 34.5446 84.2009L34.1522 81.9875C33.7599 80.8808 33.3676 80.1431 32.5829 79.4053C31.7983 78.6675 31.0136 78.2986 29.8367 77.9297C29.8367 77.9297 29.8367 78.6675 30.229 79.7742C30.229 80.1431 30.229 80.5119 30.6213 80.8808C30.6213 81.2497 30.6213 81.2497 30.6213 81.2497V81.6186C31.0136 81.9875 31.0136 82.3564 31.406 82.7253L32.1906 84.9387C32.1906 84.9387 32.1906 85.3076 32.5829 86.0454C32.9753 86.4143 32.9753 87.1521 32.9753 87.1521C32.9753 87.5209 33.3676 87.8898 32.9753 88.2587C32.1906 88.9965 32.1906 89.3654 32.1906 89.3654Z" fill="white"/>
<path d="M28.267 92.3165C28.267 92.6854 28.6593 93.4232 29.0516 93.7921C29.444 94.161 29.444 94.8988 29.8363 95.2677C30.2286 96.3744 31.0133 97.4811 31.4056 98.2189C31.7979 99.6944 32.1902 100.063 32.1902 100.063C32.9749 101.17 34.1518 101.539 35.3288 100.801C36.5058 100.063 36.5058 98.9566 36.1135 98.2189C36.1135 98.2189 35.7211 97.85 35.3288 96.7433C34.9365 96.0055 34.5442 94.8988 33.7595 93.7921C33.3672 93.4232 33.3672 92.6854 32.9749 92.3165C32.5826 91.9476 32.5825 91.2099 32.5825 90.841C31.7979 90.1032 31.7979 89.7343 31.7979 89.7343C31.4056 88.6276 30.2286 88.2587 29.0516 88.6276C27.8747 88.9965 27.4823 89.7343 27.8747 90.841C27.8747 90.841 27.8747 91.5787 28.267 92.3165Z" fill="white"/>
<path d="M23.1664 76.0854C23.1664 75.7165 23.1664 75.3476 23.1664 74.9787C23.1664 73.872 23.1664 73.1342 23.1664 73.1342V72.7653C22.7741 72.3964 22.7741 72.0275 22.7741 71.2897V68.7075V66.1252C22.7741 65.7563 22.7741 65.0185 23.1664 64.6496V64.2807C23.1664 64.2807 23.1664 63.1741 23.1664 62.4363C23.1664 62.0674 23.1664 61.3296 23.1664 61.3296C23.1664 60.9607 23.1664 60.5918 23.1664 60.5918C20.8125 61.3296 19.2432 63.543 19.2432 66.1252V68.7075V71.2897C19.2432 73.872 20.8125 76.0854 23.1664 76.8232C23.5587 76.8232 23.5587 76.4543 23.1664 76.0854Z" fill="white"/>
<path d="M28.6582 72.7648C28.6582 72.7648 28.6582 73.5026 28.6582 74.6093C28.6582 74.9782 28.6582 75.3471 28.6582 75.716C28.6582 76.0849 28.6582 76.0849 28.6582 76.0849C30.6198 74.9782 31.7968 73.1337 31.7968 70.9204V68.707V66.4936C31.7968 64.2803 30.6198 62.4358 28.6582 61.3291V61.698C28.6582 62.0669 28.6582 62.4358 28.6582 62.8047C28.6582 63.5425 28.6582 64.6492 28.6582 64.6492V65.018C28.6582 65.3869 29.0505 65.7558 29.0505 66.1247V68.3381V70.5515C29.0505 70.9204 29.0505 71.2893 28.6582 71.6581C28.6582 72.3959 28.6582 72.3959 28.6582 72.7648Z" fill="white"/>
<path d="M25.1289 82.7253C25.5212 83.832 26.6982 84.5698 27.8751 84.2009C29.0521 83.832 29.8368 82.7253 29.4444 81.6186C29.0521 81.6186 27.8751 72.3962 27.8751 72.3962C27.8751 71.2895 26.6982 70.5518 25.5212 70.5518C24.3442 70.5518 23.5596 71.6584 23.5596 72.7651C23.5596 73.134 25.1289 83.0942 25.1289 82.7253Z" fill="white"/>
<path d="M23.9509 58.0097C23.9509 58.0097 23.9509 57.2719 24.3432 56.1652C24.3432 55.7963 24.3432 55.4274 24.7356 55.0585C24.7356 54.6896 24.7356 54.3207 24.7356 54.3207V53.9518C24.7356 53.583 24.7356 53.2141 24.7356 52.4763L25.5202 50.2629C25.5202 50.2629 25.5202 49.5251 25.9125 49.1562C26.3049 48.4184 26.3049 48.0495 26.3049 48.0495C26.3049 47.6806 26.6972 47.3117 27.0895 46.9429V46.574C27.0895 46.574 27.4818 45.8362 27.8742 44.7295C27.8742 44.3606 28.2665 43.9917 28.2665 43.6228C28.2665 43.2539 28.6588 43.2539 28.6588 43.2539C26.3049 43.2539 24.3432 45.0984 23.1663 47.3117C23.1663 47.3117 22.7739 48.0495 22.7739 48.4184C22.3816 49.1562 22.3816 49.5251 22.3816 49.5251L21.597 52.1074C21.2047 53.2141 21.2047 54.6896 21.597 55.7963C21.9893 56.5341 22.7739 57.6408 23.9509 58.0097Z" fill="white"/>
<path d="M25.1289 54.6892C24.7365 54.6892 23.5596 64.6494 23.5596 64.6494C23.5596 65.756 24.3442 66.8627 25.5212 66.8627C27.0905 66.8627 27.8751 65.756 27.8751 64.6494C27.4828 64.6494 29.0521 55.427 29.4444 55.427C29.8368 54.3203 29.0521 53.2136 27.8751 52.8447C26.6982 52.8447 25.5212 53.5825 25.1289 54.6892Z" fill="white"/>
<path d="M33.7584 44.7295C33.7584 44.7295 33.7584 45.0984 33.3661 45.0984C33.3661 45.4673 32.9738 45.8362 32.9738 46.2051C32.5814 46.9429 32.1891 47.6806 32.1891 47.6806C32.1891 47.6806 32.1891 48.0495 31.7968 48.0495C31.7968 48.4184 31.7968 48.7873 31.7968 49.1562C31.7968 49.1562 31.4045 49.5251 31.4045 50.2629C31.4045 50.6318 31.0121 51.3696 31.0121 51.3696L30.2275 53.583C30.2275 53.9519 29.8352 54.3208 29.4429 54.6896V55.0585V55.4274C29.4429 55.7963 29.4429 56.1652 29.0505 56.5341C29.0505 57.2719 28.6582 58.3786 28.6582 58.3786C29.8352 58.0097 30.6198 57.6408 31.4045 56.903C32.1891 56.1652 32.9738 55.4274 32.9738 54.3208L33.3661 52.1074C33.3661 52.1074 33.3661 51.7385 33.7584 51.0007C34.1507 50.6318 34.1507 49.894 34.1507 49.894C35.72 48.7873 34.9354 46.574 33.7584 44.7295Z" fill="white"/>
<path d="M30.6203 38.8268C31.0126 38.458 31.0126 38.0891 31.405 37.7202C31.405 37.3513 31.7973 37.3513 31.7973 37.3513C31.7973 37.3513 31.7973 36.9824 32.1896 36.9824C32.1896 36.6135 32.1896 36.2446 32.5819 35.5068L33.7589 33.2934C33.7589 33.2934 34.1512 32.9245 34.5436 32.1867C34.9359 31.8179 35.3282 31.0801 35.3282 31.0801C35.3282 30.7112 35.7205 30.7112 36.1129 30.3423C36.1129 30.3423 36.1129 29.9734 36.5052 29.9734C36.5052 29.9734 37.2898 29.2356 37.6822 28.4978C38.0745 28.1289 38.4668 27.76 38.4668 27.3911C38.8591 27.0222 38.8591 27.0222 38.8591 27.0222C36.5052 26.6533 34.1512 27.3911 32.5819 29.6045C32.5819 29.6045 32.1896 29.9734 31.7973 30.7112C31.405 31.0801 31.0126 31.8179 31.0126 31.8179L29.4433 33.6623C27.8741 35.8757 28.2664 38.458 29.8357 40.3024C29.8357 40.3024 30.228 39.5646 30.6203 38.8268Z" fill="white"/>
<path d="M35.7211 39.1956C36.5058 38.4578 36.1135 36.9822 34.9365 36.6133C34.1518 35.8755 32.5826 36.2444 32.1902 37.3511C32.1902 37.3511 31.7979 37.72 31.4056 38.8267C31.0133 39.5645 30.2286 40.6712 29.8363 41.7779C29.444 42.5156 29.444 42.8845 29.0516 43.6223C28.6593 43.9912 28.6593 44.729 28.267 45.0979C27.8747 45.8357 27.8747 46.5735 27.8747 46.5735C27.4823 47.6802 27.8747 48.7869 29.0516 49.1557C30.2286 49.5246 31.4056 48.7869 31.7979 48.0491C31.7979 48.0491 32.1902 47.6802 32.1902 46.5735C32.1902 46.2046 32.5825 45.8357 32.5825 45.0979C32.9749 44.729 32.9749 43.9912 33.3672 43.6223C33.7595 42.5156 34.5442 41.409 34.9365 40.6712C35.3288 39.9334 35.7211 39.1956 35.7211 39.1956Z" fill="white"/>
<path d="M43.1753 30.3428C43.1753 30.3428 43.1753 30.3428 42.783 30.7117C42.3907 31.0806 42.3907 31.4495 41.9984 31.8184C41.606 32.5561 40.8214 33.2939 40.8214 33.2939L40.4291 33.6628C40.4291 34.0317 40.0367 34.4006 40.0367 34.7695C40.0367 34.7695 39.6444 35.1384 39.2521 35.5073C39.2521 35.8762 38.8598 36.2451 38.8598 36.2451L37.6828 38.0896C37.2905 38.4585 37.2905 38.8273 36.8981 38.8273C36.8981 38.8273 36.8981 39.1962 36.5058 39.1962C36.5058 39.1962 36.5058 39.1962 36.1135 39.5651C36.1135 40.3029 35.7212 40.6718 35.7212 41.0407C35.3288 41.7785 34.9365 42.5163 34.9365 42.5163C37.2905 42.5163 39.2521 41.4096 40.4291 39.5651L41.606 37.7207C41.606 37.7207 41.9984 37.3518 41.9984 36.9829C42.3907 36.614 42.783 36.2451 42.783 36.2451C43.96 34.7695 43.96 32.1872 43.1753 30.3428Z" fill="white"/>
<path d="M41.9973 23.7018C42.3896 23.3329 42.7819 22.964 42.7819 22.5951C43.1742 22.2262 43.5666 22.2262 43.5666 22.2262L43.9589 21.8573C43.9589 21.4884 44.3512 21.1195 44.7435 20.7506L46.7052 19.275C46.7052 19.275 47.0975 18.9061 47.4898 18.5373C47.8821 18.1684 47.8821 18.1684 48.2744 18.1684L48.6668 17.7995C49.0591 17.4306 49.4514 17.4306 49.8437 17.0617L50.2361 16.6928L53.3747 14.4794C51.413 13.3727 48.6668 13.7416 46.7052 15.2172C46.7052 15.2172 46.7052 15.2172 46.3128 15.5861C45.9205 15.5861 45.9205 15.955 45.5282 16.3239C45.1359 16.6928 44.3512 17.0617 44.3512 17.0617L42.3896 18.9061C40.428 20.7506 40.0356 23.3329 40.8203 25.1774C40.8203 24.8085 41.6049 24.4396 41.9973 23.7018Z" fill="white"/>
<path d="M36.8984 30.3421C36.1138 31.0799 36.5061 32.5555 37.2907 33.2933C38.4677 33.6622 39.6447 33.6622 40.4293 32.5555C40.4293 32.5555 40.8216 32.1866 41.214 31.4488C41.6063 31.0799 41.9986 30.711 41.9986 30.3421C42.7833 29.9732 43.1756 29.6043 43.5679 28.8665C44.3526 28.1288 45.1372 27.0221 45.9219 26.6532C46.3142 26.2843 46.3142 25.9154 46.7065 25.9154C47.0988 25.9154 47.0988 25.5465 47.0988 25.5465C47.8835 24.8087 47.8835 23.702 47.0988 22.5953C46.3142 21.8575 44.7449 21.8575 43.9602 22.5953C43.9602 22.5953 43.9602 22.5953 43.5679 22.9642C43.1756 23.3331 43.1756 23.3331 42.7833 23.702C41.9986 24.4398 41.214 25.1776 40.4293 26.2843C40.037 26.6532 39.6447 27.0221 39.2523 27.7599C38.86 28.1288 38.4677 28.4976 38.0754 28.8665C37.2907 29.9732 36.8984 30.3421 36.8984 30.3421Z" fill="white"/>
<path d="M56.5141 18.9062L53.7679 21.1196C53.7679 21.1196 53.3755 21.1196 53.3755 21.4885C53.3755 21.8574 52.9832 22.2263 52.5909 22.5952C52.5909 22.5952 52.5909 22.5952 52.1986 22.9641C52.1986 22.9641 51.8062 23.333 51.4139 23.333C51.0216 23.7019 50.6293 24.0708 50.6293 24.0708L49.06 25.5464C48.6676 25.9152 48.2753 25.9152 47.883 26.2841C47.883 26.2841 47.883 26.653 47.4907 26.653C47.4907 26.653 47.4907 26.653 47.0983 27.0219C46.706 27.3908 46.706 27.7597 46.3137 27.7597C45.529 28.4975 45.1367 28.8664 45.1367 28.8664C47.4907 29.6042 49.4523 28.8664 51.4139 27.7597L52.9832 26.2841C52.9832 26.2841 53.3755 25.9152 53.7679 25.5464C54.1602 25.1775 54.1602 25.1775 54.5525 25.1775L54.9448 24.8086C56.5141 23.333 56.9064 21.1196 56.5141 18.9062Z" fill="white"/>
<path d="M58.8671 11.5288C59.2594 11.1599 59.2594 11.1599 59.2594 11.1599H59.6518C60.0441 10.791 60.4364 10.4221 60.8287 10.4221L63.1827 9.31541L65.5366 8.20872C66.3213 7.83983 66.7136 7.83983 67.1059 7.83983C67.1059 7.83983 67.4982 7.83983 67.4982 7.47093L71.0292 6.36425C69.4599 4.88867 66.7136 4.51978 63.9673 5.25757L61.6134 6.36425L59.2594 7.47093C58.4748 7.83983 58.0825 8.20872 57.6901 8.57762C57.2978 8.94651 56.9055 9.31541 56.5132 10.0532C55.7285 11.1599 55.7285 12.2666 55.7285 13.3732C55.7285 13.3732 56.5132 13.0044 57.2978 12.2666C58.0825 11.8977 58.4748 11.5288 58.8671 11.5288Z" fill="white"/>
<path d="M50.6296 17.062C49.4526 17.7998 49.4526 18.9065 50.2373 20.0132C51.0219 20.751 52.1989 21.1199 53.3759 20.3821C53.3759 20.3821 53.7682 20.0132 54.5528 19.6443C55.3375 18.9065 56.5145 18.1687 57.2991 17.7998C58.4761 17.062 59.2607 16.6931 60.0454 15.9554C60.4377 15.5865 60.83 15.5865 60.83 15.2176C61.6147 15.2176 61.6147 15.2176 61.6147 15.2176C62.7917 14.8487 63.184 13.742 62.3993 12.6353C62.007 11.5286 60.4377 11.1597 59.2607 11.8975C59.2607 11.8975 59.2607 11.8975 58.8684 12.2664C58.4761 12.2664 58.0838 12.6353 57.6914 13.0042C56.9068 13.3731 55.7298 14.1109 54.5528 14.8487C53.3759 15.5865 52.1989 16.3242 51.4143 16.6931L50.6296 17.062Z" fill="white"/>
<path d="M69.8535 12.635H69.4612C69.0688 13.0039 68.6765 13.3728 68.2842 13.3728L65.9303 14.4795L63.9686 15.2173C63.5763 15.5862 63.184 15.5862 62.7917 15.5862C62.7917 15.5862 62.3993 15.5862 62.3993 15.9551C62.3993 15.9551 62.007 15.9551 62.007 16.324C61.6147 16.324 61.2224 16.6928 60.83 17.0617C60.0454 17.4306 59.2607 17.7995 59.2607 17.7995C60.0454 18.5373 61.2224 18.9062 62.3993 18.9062C62.7917 18.9062 63.5763 18.9062 63.9686 18.9062C64.361 18.9062 65.1456 18.5373 65.5379 18.5373L67.1072 17.0617C67.1072 17.0617 69.0688 15.9551 69.0688 16.324C71.0305 15.5862 72.5998 13.7417 72.9921 11.5283L69.8535 12.635Z" fill="white"/>
<path d="M78.4845 4.88865C78.8768 4.51975 79.2692 4.15086 80.0538 4.15086L82.8001 3.78197L85.5463 3.41307C85.9387 3.41307 86.7233 3.41307 87.1156 3.78197H87.508L91.4312 3.41307C89.8619 1.5686 87.508 0.461914 84.7617 0.461914L82.0154 0.830809L79.2692 1.1997C78.4845 1.1997 78.0922 1.5686 77.3075 1.5686C76.9152 1.93749 76.1306 2.30639 75.7382 2.67528C74.9536 3.41307 74.1689 4.51975 74.1689 5.62644L78.0922 4.88865H78.4845Z" fill="white"/>
<path d="M67.8915 8.2085C66.7145 8.57739 66.3222 9.68407 66.7145 10.7908C67.1068 11.8974 68.2838 12.2663 69.4608 11.8974C69.4608 11.8974 69.8531 11.5285 71.0301 11.5285C71.8147 11.1597 72.9917 10.7908 74.1687 10.4219C76.5226 10.053 78.8766 9.31518 78.8766 9.31518C80.0535 8.94629 80.8382 8.2085 80.4458 7.10181C80.4458 5.99513 79.2689 5.25734 77.6996 5.62623C77.6996 5.62623 74.9533 6.36402 72.5994 6.73292C71.4224 7.10181 70.2454 7.47071 69.0684 7.8396C68.6761 8.2085 67.8915 8.2085 67.8915 8.2085Z" fill="white"/>
<path d="M87.507 8.94702H87.1147C86.7224 9.31591 86.33 9.31591 85.9377 9.31591L83.5838 9.68481L81.2298 10.0537C80.8375 10.0537 80.4452 10.0537 79.6605 10.0537H79.2682L75.7373 10.7915C76.522 11.5293 77.3066 12.2671 78.4836 12.636C78.8759 12.636 79.6605 13.0049 80.0529 13.0049C80.4452 13.0049 81.2298 13.0049 81.6222 13.0049L83.9761 12.636L86.3301 12.2671C88.684 12.2671 90.2533 10.7915 91.4303 8.57812L87.507 8.94702Z" fill="white"/>
<path d="M98.1007 3.78196C98.493 3.78196 98.8854 3.41307 99.67 3.41307L102.416 3.78196L104.77 4.15086C105.163 4.15086 105.555 4.51975 105.947 4.51975H106.34L110.263 5.25754C109.87 4.15086 109.478 3.04418 108.693 2.30639C108.301 1.93749 107.909 1.5686 107.124 1.1997C106.732 0.830809 105.947 0.830809 105.163 0.830809L102.416 0.461914H100.062C97.3161 0.461914 94.9621 1.5686 93.7852 3.41307L97.7084 3.78196C98.1007 3.78196 98.1007 3.78196 98.1007 3.78196Z" fill="white"/>
<path d="M85.5456 4.88891C85.1533 5.2578 85.1533 5.99559 85.1533 6.36449C85.1533 7.10228 85.5456 7.47117 85.938 7.84007C86.3303 8.20896 86.7226 8.20896 87.5073 8.20896C87.5073 8.20896 89.8612 8.20896 92.6075 7.84007C94.9614 7.84007 97.7077 8.20896 97.7077 8.20896C98.1 8.20896 98.8847 8.20896 99.277 7.84007C99.6693 7.47117 100.062 7.10228 100.062 6.36449C100.062 5.99559 100.062 5.2578 99.6693 4.88891C98.8847 4.52002 98.4923 4.15112 97.7077 4.15112C97.7077 4.15112 94.9614 4.15112 92.2152 3.78223C89.8612 4.15112 87.1149 4.15112 87.1149 4.15112C86.3303 4.15112 85.938 4.52002 85.5456 4.88891Z" fill="white"/>
<path d="M105.555 10.053H105.163C104.77 10.053 104.378 10.4219 103.593 10.053L101.239 9.68408L98.8854 9.31518C98.493 9.31518 98.1007 9.31518 97.7084 8.94629H97.3161H93.7852C94.5698 10.7908 96.5314 12.2663 98.8854 12.6352L101.239 13.0041L103.593 13.373C103.986 13.373 104.77 13.373 105.163 13.373C105.555 13.373 106.34 13.373 106.732 13.0041C107.909 12.6352 108.693 11.8974 109.478 11.1597L105.555 10.053Z" fill="white"/>
<path d="M117.323 7.83958C117.716 7.83958 118.5 7.83958 118.893 7.83958L121.247 8.94627L123.601 10.0529C123.993 10.4218 124.385 10.4218 124.778 10.7907H125.17C125.17 10.7907 125.562 10.7907 125.562 11.1596C125.955 11.1596 126.347 11.5285 126.739 11.8974C127.524 12.2663 128.308 13.0041 128.308 13.0041C128.308 11.8974 128.308 10.7907 127.524 9.68405C127.131 9.31516 126.739 8.57737 126.347 8.20848C125.954 7.83958 125.17 7.47069 124.778 7.10179L122.424 5.99511L120.07 4.88843C117.323 4.15064 114.969 4.51953 113.008 5.99511L116.931 7.83958C117.323 7.83958 117.323 7.83958 117.323 7.83958Z" fill="white"/>
<path d="M103.986 7.10181C103.594 8.2085 104.378 9.31518 105.555 9.31518C105.555 9.31518 107.909 10.053 110.263 10.4219C111.44 10.7908 112.617 11.1597 113.402 11.5285C114.187 11.8974 114.971 11.8974 114.971 11.8974C116.148 12.2663 117.325 11.8974 117.717 10.7908C118.11 9.68407 117.717 8.57739 116.54 8.2085C116.54 8.2085 115.756 7.8396 114.971 7.8396C114.187 7.47071 112.617 7.10181 111.44 6.73292C108.694 5.99513 106.34 5.62623 106.34 5.62623C105.555 5.25734 104.378 5.99513 103.986 7.10181Z" fill="white"/>
<path d="M124.386 16.6928C123.994 16.3239 123.602 16.3239 123.209 15.9551C122.817 15.9551 122.817 15.5862 122.817 15.5862C122.817 15.5862 122.425 15.5862 122.425 15.2173C122.032 15.2173 121.64 15.2173 121.248 14.8484L119.286 13.7417C119.286 13.7417 117.325 12.635 116.932 12.635C116.54 12.635 116.148 12.2661 115.755 11.8972H115.363L111.832 11.5283C112.224 13.7417 113.401 15.5862 115.755 16.3239L117.717 17.0617L119.679 17.7995C120.071 18.1684 120.855 18.1684 121.248 18.1684C121.64 18.1684 122.425 18.1684 122.817 18.1684C123.994 18.1684 124.779 17.7995 125.956 17.0617C125.956 17.4306 125.171 17.0617 124.386 16.6928Z" fill="white"/>
<path d="M134.587 17.0617C134.979 17.0617 135.371 17.4306 135.764 17.7995C135.764 17.7995 135.764 17.7995 136.156 18.1684C136.548 18.1684 136.548 18.5373 136.941 18.5373C137.725 18.9061 138.117 19.275 138.117 19.275L140.079 20.7506C140.471 21.1195 140.864 21.4884 140.864 21.8573C140.864 21.8573 141.256 21.8573 141.256 22.2262C141.256 22.2262 141.256 22.2262 141.648 22.5951C142.041 22.964 142.041 23.3329 142.433 23.7018C143.218 24.4396 143.61 25.1774 143.61 25.1774C144.395 23.3329 144.002 20.3817 142.041 18.9061L140.079 17.0617C140.079 17.0617 139.687 16.6928 138.902 16.3239C138.51 15.955 138.51 15.955 138.117 15.5861C138.117 15.2172 138.117 15.2172 138.117 15.2172C135.764 13.7416 133.41 13.3727 131.056 14.4794L134.587 17.0617C134.587 17.0617 134.587 16.6928 134.587 17.0617Z" fill="white"/>
<path d="M125.563 11.8974C125.17 11.8974 125.17 11.5285 125.17 11.5285C123.993 11.1596 122.816 11.5285 122.032 12.2663C121.64 13.373 122.032 14.4797 122.816 14.8486C122.816 14.8486 122.816 14.8486 123.209 15.2175C123.601 15.2175 123.601 15.5863 123.993 15.9552C124.778 16.3241 125.955 17.0619 126.74 17.7997C127.917 18.5375 128.701 19.2753 129.486 19.6442C130.271 20.0131 130.663 20.382 130.663 20.382C131.448 21.1198 133.017 20.7509 133.802 20.0131C134.586 19.2753 134.194 17.7997 133.409 17.0619C133.409 17.0619 133.017 16.693 132.232 15.9552C131.448 15.2175 130.271 14.4797 129.094 14.1108C127.917 13.373 126.74 12.6352 125.955 12.2663L125.563 11.8974Z" fill="white"/>
<path d="M138.509 27.3908C138.117 27.0219 138.117 26.653 137.724 26.2841C137.332 25.9152 137.332 25.9152 137.332 25.9152L136.94 25.5464C136.548 25.5464 136.155 25.1775 135.763 24.8086L134.194 23.333C134.194 23.333 133.801 22.9641 133.409 22.5952C133.017 22.5952 132.624 22.5952 132.624 22.2263L132.232 21.8574C131.84 21.4885 131.447 21.1196 131.447 20.7507C131.447 20.7507 131.055 20.7507 131.055 20.3818L127.916 18.9062C127.524 21.1196 128.309 23.333 129.878 24.4397C129.878 24.4397 129.878 24.4397 130.27 24.8086C130.27 24.8086 130.663 25.1775 131.055 25.1775C131.447 25.5464 131.84 25.9152 131.84 25.9152L133.409 27.3908C134.978 28.8664 137.332 29.2353 139.686 28.4975C139.686 28.4975 139.294 27.7597 138.509 27.3908Z" fill="white"/>
<path d="M147.14 28.4978C147.532 29.2356 148.317 29.9734 148.317 29.9734C148.317 29.9734 148.317 30.3423 148.709 30.3423C149.102 30.7112 149.494 30.7112 149.494 31.0801C149.494 31.0801 149.886 31.449 150.279 32.1867C150.671 32.5556 151.063 33.2934 151.063 33.2934L152.24 35.5068C152.633 35.8757 152.633 36.2446 152.633 36.9824L153.025 37.3513C153.025 37.3513 153.025 37.7202 153.417 37.7202C153.417 38.0891 153.81 38.458 154.202 38.8268C154.594 39.5646 154.987 40.6713 154.987 40.6713C156.556 38.8268 156.556 36.2446 155.379 34.0312L153.81 31.8179C153.81 31.8179 153.417 31.449 153.025 30.7112C152.633 30.3423 152.24 29.6045 152.24 29.6045C150.671 27.3911 147.925 26.6533 145.963 27.0222C145.963 27.0222 145.963 27.0222 146.355 27.3911C146.355 27.76 146.748 28.1289 147.14 28.4978Z" fill="white"/>
<path d="M141.255 22.9641C140.863 22.5952 140.863 22.9641 141.255 22.9641C139.686 21.8575 138.509 21.8575 137.724 22.5952C136.94 23.333 136.94 24.8086 137.724 25.5464C137.724 25.5464 137.724 25.5464 138.117 25.9153C138.117 26.2842 138.509 26.2842 138.901 26.6531C139.686 27.3909 140.471 28.1287 141.255 28.8665C141.647 29.6042 142.04 29.9731 142.432 30.342C142.824 30.7109 143.217 31.0798 143.217 31.4487C143.609 32.1865 144.001 32.5554 144.001 32.5554C144.786 33.6621 146.355 33.6621 147.14 33.2932C147.925 32.5554 148.317 31.4487 147.532 30.342C147.532 30.342 147.14 29.9731 146.355 29.2354C145.963 28.8665 145.571 28.4976 145.178 28.1287C144.786 27.7598 144.394 27.3909 144.001 26.6531C143.217 25.5464 142.04 24.8086 141.647 24.0708C141.647 23.333 141.255 23.333 141.255 22.9641Z" fill="white"/>
<path d="M147.926 39.1962C147.533 38.8273 147.141 38.8273 147.141 38.4585L145.964 36.614C145.964 36.614 145.572 36.2451 145.179 35.5073C144.787 35.1384 144.395 34.7695 144.395 34.7695C144.002 34.4006 144.002 34.0317 144.002 33.6628L143.61 33.2939C143.61 33.2939 143.218 32.5561 142.433 31.8184C142.041 31.4495 142.041 31.0806 141.648 30.7117C141.648 30.3428 141.648 30.3428 141.648 30.3428C140.864 32.1872 140.864 34.7695 142.041 36.2451C142.041 36.2451 142.433 36.614 142.825 36.9829C143.218 37.3518 143.218 37.7207 143.218 37.7207L144.395 39.5651C145.572 41.4096 147.533 42.5163 149.887 42.5163C149.887 42.5163 149.495 41.7785 149.103 41.0407C148.71 40.6718 148.71 40.3029 148.71 39.934C148.71 39.5651 148.318 39.5651 148.318 39.5651C148.318 39.5651 148.318 39.1962 147.926 39.1962Z" fill="white"/>
<path d="M156.948 44.7292C157.341 45.467 157.733 46.5737 157.733 46.5737V46.9426C158.125 47.3115 158.518 47.6804 158.518 48.0493C158.518 48.0493 158.91 48.7871 158.91 49.156C158.91 49.8938 159.302 50.2627 159.302 50.2627L160.087 52.476C160.087 52.8449 160.087 53.5827 160.087 53.9516V54.3205C160.087 54.3205 160.087 54.6894 160.087 55.0583C160.087 55.4272 160.479 55.7961 160.479 56.165C160.479 56.9028 160.872 58.0094 160.872 58.0094C161.656 57.2717 162.441 56.5339 162.833 55.4272C163.226 54.3205 163.226 53.2138 162.833 51.7382L162.049 49.156C162.049 49.156 162.049 48.4182 161.656 48.0493C161.264 47.3115 161.264 46.9426 161.264 46.9426C160.479 44.3603 158.125 42.8848 155.771 42.8848C155.771 42.8848 155.771 43.2537 156.164 43.2537C156.556 43.6226 156.948 43.9914 156.948 44.7292Z" fill="white"/>
<path d="M156.95 46.5735C156.95 46.5735 156.558 45.8357 156.558 45.0979C156.558 44.729 156.165 43.9912 155.773 43.6223C155.381 43.2534 155.381 42.5156 154.988 41.7779C154.596 40.6712 153.811 39.5645 153.419 38.8267C153.027 38.0889 152.634 37.3511 152.634 37.3511C151.85 36.2444 150.673 35.8755 149.496 36.6133C148.319 37.3511 148.319 38.4578 148.711 39.1956C148.711 39.1956 149.104 39.5645 149.496 40.6712C149.888 41.409 150.281 42.5156 151.065 43.6223C151.457 43.9912 151.457 44.729 151.85 45.0979C152.242 45.4668 152.242 46.2046 152.242 46.5735C152.634 47.3113 152.634 48.0491 152.634 48.0491C153.027 49.1557 154.204 49.5246 155.381 49.1557C156.95 48.7869 157.342 47.6802 156.95 46.5735Z" fill="white"/>
<path d="M154.988 56.1645C154.988 55.7956 154.988 55.7956 154.988 55.7956V55.4267C154.595 55.0578 154.595 54.6889 154.203 54.32L153.418 51.7378C153.418 51.7378 153.418 51.3689 153.026 50.6311C152.634 50.2622 152.634 49.5244 152.634 49.5244C152.634 49.1555 152.241 48.7866 152.634 48.4177C152.634 48.4177 152.634 48.0488 152.241 48.0488C152.241 48.0488 151.849 47.311 151.457 46.5732C151.457 46.2043 151.064 45.8354 151.064 45.4665C151.064 45.0977 150.672 45.0977 150.672 45.0977C149.103 46.5732 148.318 48.7866 149.103 51C149.103 51 149.103 51.3689 149.495 52.1067C149.495 52.4755 149.887 53.2133 149.887 53.2133L150.28 55.4267C150.672 56.5334 151.064 57.2712 151.849 58.009C152.634 58.7468 153.418 59.1156 154.595 59.4845C154.595 59.4845 154.595 58.7468 154.203 57.6401C154.988 56.9023 154.988 56.5334 154.988 56.1645Z" fill="white"/>
<path d="M165.189 66.1252C165.189 63.543 163.62 61.3296 161.266 60.5918C161.266 60.5918 161.266 60.9607 161.266 61.3296C161.266 61.6985 161.266 62.0674 161.266 62.4363C161.266 63.543 161.266 64.2807 161.266 64.2807V64.6496C161.658 65.0185 161.658 65.3874 161.658 66.1252V68.7075V71.2897C161.658 71.6586 161.658 72.3964 161.266 72.7653V73.1342C161.266 73.1342 161.266 74.2409 161.266 74.9787C161.266 75.3476 161.266 76.0854 161.266 76.0854C161.266 76.4543 161.266 76.8232 161.266 76.8232C163.62 76.0854 165.189 73.872 165.189 71.2897V68.7075V66.1252Z" fill="white"/>
<path d="M156.165 64.6492C156.165 64.6492 156.165 63.9114 156.165 62.8047C156.165 62.4358 156.165 62.0669 156.165 61.698C156.165 61.3291 156.165 61.3291 156.165 61.3291C154.203 62.4358 153.026 64.2803 153.026 66.4936V68.707V70.9204C153.026 73.1337 154.203 74.9782 156.165 76.0849V75.716C156.165 75.3471 156.165 74.9782 156.165 74.6093C156.165 73.8715 156.165 72.7648 156.165 72.7648V72.3959C156.165 72.027 155.773 71.6582 155.773 71.2893V69.0759V66.8625C155.773 66.4936 155.773 66.1247 156.165 65.7558C156.165 65.018 156.165 65.018 156.165 64.6492Z" fill="white"/>
<path d="M159.695 54.6897C159.303 53.583 158.126 52.8452 156.949 53.2141C155.772 53.583 154.987 54.6897 155.379 55.7964C155.772 55.7964 156.949 65.0187 156.949 65.0187C156.949 66.1254 158.126 66.8632 159.303 66.8632C160.48 66.8632 161.264 65.7565 161.264 64.6499L159.695 54.6897Z" fill="white"/>
<path d="M9.66335 53.015L2.36907 36.9043H182.455L175.161 53.015L175.114 53.1182L175.161 53.2213L182.455 69.332H2.36907L9.66335 53.2213L9.71003 53.1182L9.66335 53.015Z" fill="#A60D60" stroke="#050608" stroke-width="0.5"/>
<path d="M75.0122 22.042L76.5526 25.8078L80.8657 26.0975L77.4768 28.7047L78.7091 32.7602L75.0122 30.4427L71.3152 32.7602L72.2395 28.7047L68.8506 26.0975L73.4718 25.8078L75.0122 22.042Z" fill="white"/>
<path d="M107.669 22.042L109.209 25.8078L113.831 26.0975L110.442 28.7047L111.366 32.7602L107.669 30.4427L103.972 32.7602L105.204 28.7047L101.815 26.0975L106.129 25.8078L107.669 22.042Z" fill="white"/>
<path d="M91.3398 22.042L92.8802 25.8078L97.1933 26.0975L93.8045 28.7047L95.0368 32.7602L91.3398 30.4427L87.6429 32.7602L88.8752 28.7047L85.4863 26.0975L89.7994 25.8078L91.3398 22.042Z" fill="white"/>
<path d="M28.3006 62.0323C23.9723 62.0323 21.4492 59.2425 21.4492 54.9552C21.4492 50.668 24.4031 47.8782 29.4083 47.8782C34.0648 47.8782 36.8341 49.9295 36.8341 53.3347V53.4783H32.5263V53.3347C32.5263 52.0629 31.7468 51.5706 29.3057 51.5706C26.3518 51.5706 25.5518 52.227 25.5518 54.9552C25.5518 57.6835 26.3108 58.3399 29.1006 58.3399C31.9519 58.3399 32.7724 58.1963 32.9571 57.1501H28.7313V54.3193H36.8546V61.8271H33.2648V58.8938H33.0596C32.6904 60.4938 31.5211 62.0323 28.3006 62.0323ZM44.1137 62.0323C39.3136 62.0323 37.0982 59.7143 37.0982 56.0629V48.0833H40.9546V55.7552C40.9546 57.704 41.5085 58.2989 44.1137 58.2989C46.7188 58.2989 47.2727 57.704 47.2727 55.7552V48.0833H51.1292V56.0629C51.1292 59.7143 48.9138 62.0323 44.1137 62.0323ZM54.9719 61.8271H50.6436L56.5719 48.0833H62.0899L68.0388 61.8271H63.6079L62.5618 59.2835H56.0386L54.9719 61.8271ZM58.295 53.8885L57.495 55.8168H61.1463L60.3463 53.8885L59.4437 51.5706H59.1771L58.295 53.8885ZM71.4875 61.8271H67.6311V48.0833H75.6517C79.2826 48.0833 81.1903 49.6013 81.1903 52.2885C81.1903 54.4629 80.1031 55.7552 77.4774 56.0835V56.2886C78.8928 56.6578 79.3441 57.3348 79.8569 58.3809L81.5595 61.8271H77.1082L75.4671 58.463C74.9748 57.4373 74.5645 57.1501 73.0671 57.1501H71.4875V61.8271ZM71.4875 51.55V54.2783H75.6107C76.7389 54.2783 77.1492 54.0732 77.1492 52.9039C77.1492 51.8167 76.7389 51.55 75.6107 51.55H71.4875ZM84.8618 61.8271H80.5335L86.4618 48.0833H91.9799L97.9287 61.8271H93.4979L92.4517 59.2835H85.9285L84.8618 61.8271ZM88.185 53.8885L87.3849 55.8168H91.0363L90.2363 53.8885L89.3337 51.5706H89.067L88.185 53.8885ZM101.377 61.8271H97.521V48.0833H101.624L105.439 53.2321L107.449 56.3912H107.716L107.531 53.3962V48.0833H111.388V61.8271H107.285L103.224 56.5347L101.48 53.827H101.213L101.377 56.4527V61.8271ZM120.215 61.8271H116.359V51.55H111.497V48.0833H125.056V51.55H120.215V61.8271ZM137.373 61.8271H125.167V48.0833H137.373V51.55H129.024V53.1911H137.065V56.6373H129.024V58.3604H137.373V61.8271ZM149.854 61.8271H137.648V48.0833H149.854V51.55H141.505V53.1911H149.546V56.6373H141.505V58.3604H149.854V61.8271ZM157.309 61.8271H150.355V48.0833H157.309C161.842 48.0833 164.714 50.6064 164.714 54.9552C164.714 59.304 161.842 61.8271 157.309 61.8271ZM157.309 51.55H154.211V58.3604H157.309C159.75 58.3604 160.591 58.0527 160.591 54.9552C160.591 51.8577 159.75 51.55 157.309 51.55Z" fill="#010101"/>
<path d="M44.6747 86.3955V79.3039H47.1707C47.5074 79.3039 47.821 79.3601 48.1116 79.4723C48.4087 79.578 48.6662 79.7298 48.8841 79.9279C49.102 80.126 49.2737 80.3637 49.3991 80.641C49.5246 80.9118 49.5873 81.2122 49.5873 81.5423C49.5873 81.8791 49.5246 82.1861 49.3991 82.4634C49.2737 82.7342 49.102 82.9686 48.8841 83.1667C48.6662 83.3648 48.4087 83.5199 48.1116 83.6322C47.821 83.7378 47.5074 83.7906 47.1707 83.7906H46.0118V86.3955H44.6747ZM47.1905 82.5229C47.5404 82.5229 47.8045 82.4238 47.9828 82.2257C48.1611 82.0277 48.2502 81.7998 48.2502 81.5423C48.2502 81.4169 48.2271 81.2947 48.1809 81.1759C48.1413 81.057 48.0753 80.9547 47.9828 80.8688C47.897 80.7764 47.788 80.7038 47.656 80.6509C47.5239 80.5981 47.3687 80.5717 47.1905 80.5717H46.0118V82.5229H47.1905ZM50.7342 79.3039H53.3193C53.6759 79.3039 53.9994 79.3601 54.2899 79.4723C54.5805 79.5846 54.8281 79.7397 55.0328 79.9378C55.2441 80.1359 55.4058 80.3736 55.5181 80.6509C55.6303 80.9217 55.6865 81.2188 55.6865 81.5423C55.6865 81.78 55.6468 82.0045 55.5676 82.2158C55.4884 82.4205 55.3794 82.6087 55.2408 82.7804C55.1021 82.9455 54.9403 83.094 54.7554 83.2261C54.5706 83.3515 54.3758 83.4506 54.1711 83.5232L54.1612 83.5926L56.0628 86.3163V86.3955H54.5276L52.6953 83.7312H52.0713V86.3955H50.7342V79.3039ZM53.3094 82.5031C53.6131 82.5031 53.8607 82.4106 54.0522 82.2257C54.2503 82.0409 54.3494 81.8065 54.3494 81.5225C54.3494 81.3971 54.3262 81.2749 54.28 81.1561C54.2404 81.0372 54.1777 80.9316 54.0918 80.8391C54.006 80.7467 53.8971 80.674 53.765 80.6212C53.6395 80.5618 53.4943 80.5321 53.3292 80.5321H52.0713V82.5031H53.3094ZM60.4318 86.554C59.9036 86.554 59.4117 86.4582 58.9561 86.2668C58.5071 86.0753 58.1175 85.8144 57.7874 85.4843C57.4572 85.1475 57.1964 84.7547 57.0049 84.3057C56.82 83.8501 56.7276 83.3648 56.7276 82.8497C56.7276 82.3347 56.82 81.8527 57.0049 81.4037C57.1964 80.9481 57.4572 80.5552 57.7874 80.225C58.1175 79.8883 58.5071 79.6242 58.9561 79.4327C59.4117 79.2412 59.9036 79.1455 60.4318 79.1455C60.9601 79.1455 61.4487 79.2412 61.8977 79.4327C62.3533 79.6242 62.7462 79.8883 63.0763 80.225C63.4065 80.5552 63.664 80.9481 63.8489 81.4037C64.0404 81.8527 64.1361 82.3347 64.1361 82.8497C64.1361 83.3648 64.0404 83.8501 63.8489 84.3057C63.664 84.7547 63.4065 85.1475 63.0763 85.4843C62.7462 85.8144 62.3533 86.0753 61.8977 86.2668C61.4487 86.4582 60.9601 86.554 60.4318 86.554ZM60.4318 85.2862C60.762 85.2862 61.069 85.2268 61.353 85.1079C61.6435 84.9891 61.8944 84.824 62.1057 84.6127C62.3236 84.4014 62.492 84.1472 62.6108 83.8501C62.7363 83.5463 62.799 83.2129 62.799 82.8497C62.799 82.4866 62.7363 82.1564 62.6108 81.8593C62.492 81.5555 62.3236 81.298 62.1057 81.0867C61.8944 80.8754 61.6435 80.7104 61.353 80.5915C61.069 80.4727 60.762 80.4132 60.4318 80.4132C60.1017 80.4132 59.7914 80.4727 59.5008 80.5915C59.2169 80.7104 58.966 80.8754 58.7481 81.0867C58.5368 81.298 58.3684 81.5555 58.243 81.8593C58.1241 82.1564 58.0647 82.4866 58.0647 82.8497C58.0647 83.2129 58.1241 83.5463 58.243 83.8501C58.3684 84.1472 58.5368 84.4014 58.7481 84.6127C58.966 84.824 59.2169 84.9891 59.5008 85.1079C59.7914 85.2268 60.1017 85.2862 60.4318 85.2862ZM65.4164 86.3955V79.3039H67.9123C68.2491 79.3039 68.5627 79.3601 68.8532 79.4723C69.1504 79.578 69.4079 79.7298 69.6258 79.9279C69.8437 80.126 70.0154 80.3637 70.1408 80.641C70.2663 80.9118 70.329 81.2122 70.329 81.5423C70.329 81.8791 70.2663 82.1861 70.1408 82.4634C70.0154 82.7342 69.8437 82.9686 69.6258 83.1667C69.4079 83.3648 69.1504 83.5199 68.8532 83.6322C68.5627 83.7378 68.2491 83.7906 67.9123 83.7906H66.7535V86.3955H65.4164ZM67.9321 82.5229C68.2821 82.5229 68.5462 82.4238 68.7245 82.2257C68.9028 82.0277 68.9919 81.7998 68.9919 81.5423C68.9919 81.4169 68.9688 81.2947 68.9226 81.1759C68.883 81.057 68.8169 80.9547 68.7245 80.8688C68.6386 80.7764 68.5297 80.7038 68.3976 80.6509C68.2656 80.5981 68.1104 80.5717 67.9321 80.5717H66.7535V82.5229H67.9321ZM72.899 79.3039H74.3154L75.4148 83.444L75.5732 84.2066H75.6525L75.8605 83.444L76.8806 80.2548H78.1286L79.1587 83.444L79.3567 84.1967H79.436L79.5845 83.444L80.6146 79.3039H82.0309L80.1491 86.3955H78.8615L77.7522 82.9785L77.5442 82.196H77.465L77.257 82.9785L76.1477 86.3955H74.8601L72.899 79.3039ZM83.1016 79.3039H84.4387V86.3955H83.1016V79.3039ZM86.066 79.3039H87.621L90.4735 84.0581H90.5527L90.4735 82.6912V79.3039H91.8007V86.3955H90.3942L87.3833 81.374H87.304L87.3833 82.7408V86.3955H86.066V79.3039ZM98.4404 79.3435C98.0112 79.8784 97.6646 80.4661 97.4005 81.1065C97.1429 81.747 97.0142 82.4469 97.0142 83.2063C97.0142 83.9656 97.1429 84.6655 97.4005 85.306C97.6646 85.9465 98.0112 86.5342 98.4404 87.069L97.4599 87.7425C97.2618 87.5246 97.0571 87.2572 96.8458 86.9403C96.6411 86.6233 96.4529 86.2701 96.2813 85.8805C96.1162 85.4909 95.9808 85.0716 95.8752 84.6226C95.7695 84.167 95.7167 83.6949 95.7167 83.2063C95.7167 82.7177 95.7695 82.2488 95.8752 81.7998C95.9808 81.3442 96.1162 80.9217 96.2813 80.5321C96.4529 80.1425 96.6411 79.7892 96.8458 79.4723C97.0571 79.1554 97.2618 78.8879 97.4599 78.67L98.4404 79.3435ZM98.9988 79.3039H100.415L101.515 83.444L101.673 84.2066H101.752L101.96 83.444L102.98 80.2548H104.228L105.258 83.444L105.456 84.1967H105.536L105.684 83.444L106.714 79.3039H108.131L106.249 86.3955H104.961L103.852 82.9785L103.644 82.196H103.565L103.357 82.9785L102.247 86.3955H100.96L98.9988 79.3039ZM110.538 80.5717V82.2158H113.381V83.4836H110.538V85.1277H113.698V86.3955H109.201V79.3039H113.698V80.5717H110.538ZM117.5 86.3955V79.3039H119.996C120.332 79.3039 120.646 79.3601 120.937 79.4723C121.234 79.578 121.491 79.7298 121.709 79.9279C121.927 80.126 122.099 80.3637 122.224 80.641C122.35 80.9118 122.412 81.2122 122.412 81.5423C122.412 81.8791 122.35 82.1861 122.224 82.4634C122.099 82.7342 121.927 82.9686 121.709 83.1667C121.491 83.3648 121.234 83.5199 120.937 83.6322C120.646 83.7378 120.332 83.7906 119.996 83.7906H118.837V86.3955H117.5ZM120.016 82.5229C120.366 82.5229 120.63 82.4238 120.808 82.2257C120.986 82.0277 121.075 81.7998 121.075 81.5423C121.075 81.4169 121.052 81.2947 121.006 81.1759C120.966 81.057 120.9 80.9547 120.808 80.8688C120.722 80.7764 120.613 80.7038 120.481 80.6509C120.349 80.5981 120.194 80.5717 120.016 80.5717H118.837V82.5229H120.016ZM124.933 79.3039H126.458L129.123 86.3955H127.647L127.062 84.7018H124.329L123.744 86.3955H122.269L124.933 79.3039ZM126.627 83.4737L125.993 81.7008L125.735 80.8391H125.656L125.398 81.7008L124.765 83.4737H126.627ZM132.32 86.554C132.016 86.554 131.726 86.5111 131.448 86.4252C131.171 86.3394 130.917 86.2106 130.686 86.0389C130.455 85.8673 130.253 85.6593 130.081 85.415C129.91 85.1641 129.774 84.8735 129.675 84.5434L130.933 84.0482C131.026 84.4047 131.187 84.7018 131.419 84.9396C131.65 85.1707 131.953 85.2862 132.33 85.2862C132.468 85.2862 132.601 85.2697 132.726 85.2367C132.858 85.1971 132.974 85.1442 133.073 85.0782C133.178 85.0056 133.261 84.9164 133.32 84.8108C133.38 84.7052 133.409 84.583 133.409 84.4443C133.409 84.3123 133.386 84.1934 133.34 84.0878C133.294 83.9821 133.215 83.8831 133.102 83.7906C132.997 83.6982 132.855 83.6091 132.676 83.5232C132.505 83.4374 132.29 83.3482 132.033 83.2558L131.597 83.0973C131.405 83.0313 131.211 82.9422 131.012 82.8299C130.821 82.7177 130.646 82.5823 130.488 82.4238C130.329 82.2654 130.197 82.0805 130.091 81.8692C129.992 81.6513 129.943 81.407 129.943 81.1363C129.943 80.8589 129.996 80.6014 130.101 80.3637C130.214 80.1194 130.369 79.9081 130.567 79.7298C130.771 79.5449 131.012 79.403 131.29 79.3039C131.574 79.1983 131.887 79.1455 132.231 79.1455C132.587 79.1455 132.894 79.195 133.152 79.294C133.416 79.3865 133.637 79.5086 133.815 79.6605C134 79.8058 134.149 79.9675 134.261 80.1458C134.373 80.3241 134.456 80.4925 134.509 80.6509L133.33 81.1462C133.264 80.9481 133.142 80.7698 132.964 80.6113C132.792 80.4528 132.554 80.3736 132.251 80.3736C131.96 80.3736 131.719 80.4429 131.528 80.5816C131.336 80.7137 131.24 80.8886 131.24 81.1065C131.24 81.3178 131.333 81.4994 131.518 81.6513C131.702 81.7965 131.996 81.9385 132.399 82.0772L132.845 82.2257C133.129 82.3248 133.386 82.4403 133.617 82.5724C133.855 82.6979 134.056 82.8497 134.222 83.028C134.393 83.2063 134.522 83.411 134.608 83.6421C134.7 83.8666 134.746 84.1274 134.746 84.4245C134.746 84.7943 134.671 85.1145 134.519 85.3853C134.373 85.6494 134.185 85.8673 133.954 86.0389C133.723 86.2106 133.462 86.3394 133.172 86.4252C132.881 86.5111 132.597 86.554 132.32 86.554ZM138.215 86.554C137.911 86.554 137.621 86.5111 137.343 86.4252C137.066 86.3394 136.812 86.2106 136.581 86.0389C136.35 85.8673 136.148 85.6593 135.977 85.415C135.805 85.1641 135.669 84.8735 135.57 84.5434L136.828 84.0482C136.921 84.4047 137.083 84.7018 137.314 84.9396C137.545 85.1707 137.848 85.2862 138.225 85.2862C138.364 85.2862 138.496 85.2697 138.621 85.2367C138.753 85.1971 138.869 85.1442 138.968 85.0782C139.073 85.0056 139.156 84.9164 139.215 84.8108C139.275 84.7052 139.304 84.583 139.304 84.4443C139.304 84.3123 139.281 84.1934 139.235 84.0878C139.189 83.9821 139.11 83.8831 138.997 83.7906C138.892 83.6982 138.75 83.6091 138.571 83.5232C138.4 83.4374 138.185 83.3482 137.928 83.2558L137.492 83.0973C137.3 83.0313 137.106 82.9422 136.908 82.8299C136.716 82.7177 136.541 82.5823 136.383 82.4238C136.224 82.2654 136.092 82.0805 135.986 81.8692C135.887 81.6513 135.838 81.407 135.838 81.1363C135.838 80.8589 135.891 80.6014 135.996 80.3637C136.109 80.1194 136.264 79.9081 136.462 79.7298C136.667 79.5449 136.908 79.403 137.185 79.3039C137.469 79.1983 137.782 79.1455 138.126 79.1455C138.482 79.1455 138.789 79.195 139.047 79.294C139.311 79.3865 139.532 79.5086 139.711 79.6605C139.895 79.8058 140.044 79.9675 140.156 80.1458C140.268 80.3241 140.351 80.4925 140.404 80.6509L139.225 81.1462C139.159 80.9481 139.037 80.7698 138.859 80.6113C138.687 80.4528 138.449 80.3736 138.146 80.3736C137.855 80.3736 137.614 80.4429 137.423 80.5816C137.231 80.7137 137.135 80.8886 137.135 81.1065C137.135 81.3178 137.228 81.4994 137.413 81.6513C137.598 81.7965 137.891 81.9385 138.294 82.0772L138.74 82.2257C139.024 82.3248 139.281 82.4403 139.512 82.5724C139.75 82.6979 139.952 82.8497 140.117 83.028C140.288 83.2063 140.417 83.411 140.503 83.6421C140.595 83.8666 140.642 84.1274 140.642 84.4245C140.642 84.7943 140.566 85.1145 140.414 85.3853C140.268 85.6494 140.08 85.8673 139.849 86.0389C139.618 86.2106 139.357 86.3394 139.067 86.4252C138.776 86.5111 138.492 86.554 138.215 86.554ZM46.3093 91.3039H47.6464V98.3955H46.3093V91.3039ZM50.7792 98.3955V92.5717H48.7983V91.3039H54.0972V92.5717H52.1163V98.3955H50.7792ZM57.6205 91.3039H62.1171V92.5717H58.9576V94.2951H61.8002V95.5628H58.9576V98.3955H57.6205V91.3039ZM66.6024 98.554C66.0741 98.554 65.5822 98.4582 65.1266 98.2668C64.6776 98.0753 64.288 97.8144 63.9579 97.4843C63.6277 97.1475 63.3669 96.7547 63.1754 96.3057C62.9906 95.8501 62.8981 95.3648 62.8981 94.8497C62.8981 94.3347 62.9906 93.8527 63.1754 93.4037C63.3669 92.9481 63.6277 92.5552 63.9579 92.225C64.288 91.8883 64.6776 91.6242 65.1266 91.4327C65.5822 91.2412 66.0741 91.1455 66.6024 91.1455C67.1306 91.1455 67.6192 91.2412 68.0682 91.4327C68.5238 91.6242 68.9167 91.8883 69.2469 92.225C69.577 92.5552 69.8345 92.9481 70.0194 93.4037C70.2109 93.8527 70.3066 94.3347 70.3066 94.8497C70.3066 95.3648 70.2109 95.8501 70.0194 96.3057C69.8345 96.7547 69.577 97.1475 69.2469 97.4843C68.9167 97.8144 68.5238 98.0753 68.0682 98.2668C67.6192 98.4582 67.1306 98.554 66.6024 98.554ZM66.6024 97.2862C66.9325 97.2862 67.2396 97.2268 67.5235 97.1079C67.814 96.9891 68.0649 96.824 68.2762 96.6127C68.4941 96.4014 68.6625 96.1472 68.7814 95.8501C68.9068 95.5463 68.9695 95.2129 68.9695 94.8497C68.9695 94.4866 68.9068 94.1564 68.7814 93.8593C68.6625 93.5555 68.4941 93.298 68.2762 93.0867C68.0649 92.8754 67.814 92.7104 67.5235 92.5915C67.2396 92.4727 66.9325 92.4132 66.6024 92.4132C66.2722 92.4132 65.9619 92.4727 65.6714 92.5915C65.3874 92.7104 65.1365 92.8754 64.9186 93.0867C64.7073 93.298 64.539 93.5555 64.4135 93.8593C64.2946 94.1564 64.2352 94.4866 64.2352 94.8497C64.2352 95.2129 64.2946 95.5463 64.4135 95.8501C64.539 96.1472 64.7073 96.4014 64.9186 96.6127C65.1365 96.824 65.3874 96.9891 65.6714 97.1079C65.9619 97.2268 66.2722 97.2862 66.6024 97.2862ZM71.5869 91.3039H74.172C74.5286 91.3039 74.8521 91.3601 75.1426 91.4723C75.4332 91.5846 75.6808 91.7397 75.8855 91.9378C76.0968 92.1359 76.2585 92.3736 76.3708 92.6509C76.483 92.9217 76.5392 93.2188 76.5392 93.5423C76.5392 93.78 76.4995 94.0045 76.4203 94.2158C76.3411 94.4205 76.2321 94.6087 76.0935 94.7804C75.9548 94.9455 75.793 95.094 75.6081 95.2261C75.4233 95.3515 75.2285 95.4506 75.0238 95.5232L75.0139 95.5926L76.9155 98.3163V98.3955H75.3803L73.548 95.7312H72.924V98.3955H71.5869V91.3039ZM74.1621 94.5031C74.4658 94.5031 74.7134 94.4106 74.9049 94.2257C75.103 94.0409 75.2021 93.8065 75.2021 93.5225C75.2021 93.3971 75.179 93.2749 75.1327 93.1561C75.0931 93.0372 75.0304 92.9316 74.9445 92.8391C74.8587 92.7467 74.7498 92.674 74.6177 92.6212C74.4922 92.5618 74.347 92.5321 74.1819 92.5321H72.924V94.5031H74.1621ZM81.6974 95.0973L79.3105 91.3039H80.9051L82.3214 93.6513H82.4007L83.7675 91.3039H85.3819L83.0345 95.0973V98.3955H81.6974V95.0973ZM89.3702 98.554C88.842 98.554 88.35 98.4582 87.8944 98.2668C87.4454 98.0753 87.0559 97.8144 86.7257 97.4843C86.3956 97.1475 86.1348 96.7547 85.9433 96.3057C85.7584 95.8501 85.6659 95.3648 85.6659 94.8497C85.6659 94.3347 85.7584 93.8527 85.9433 93.4037C86.1348 92.9481 86.3956 92.5552 86.7257 92.225C87.0559 91.8883 87.4454 91.6242 87.8944 91.4327C88.35 91.2412 88.842 91.1455 89.3702 91.1455C89.8984 91.1455 90.3871 91.2412 90.8361 91.4327C91.2917 91.6242 91.6845 91.8883 92.0147 92.225C92.3448 92.5552 92.6024 92.9481 92.7872 93.4037C92.9787 93.8527 93.0745 94.3347 93.0745 94.8497C93.0745 95.3648 92.9787 95.8501 92.7872 96.3057C92.6024 96.7547 92.3448 97.1475 92.0147 97.4843C91.6845 97.8144 91.2917 98.0753 90.8361 98.2668C90.3871 98.4582 89.8984 98.554 89.3702 98.554ZM89.3702 97.2862C89.7004 97.2862 90.0074 97.2268 90.2913 97.1079C90.5818 96.9891 90.8328 96.824 91.0441 96.6127C91.262 96.4014 91.4303 96.1472 91.5492 95.8501C91.6746 95.5463 91.7374 95.2129 91.7374 94.8497C91.7374 94.4866 91.6746 94.1564 91.5492 93.8593C91.4303 93.5555 91.262 93.298 91.0441 93.0867C90.8328 92.8754 90.5818 92.7104 90.2913 92.5915C90.0074 92.4727 89.7004 92.4132 89.3702 92.4132C89.0401 92.4132 88.7297 92.4727 88.4392 92.5915C88.1553 92.7104 87.9043 92.8754 87.6864 93.0867C87.4752 93.298 87.3068 93.5555 87.1813 93.8593C87.0625 94.1564 87.003 94.4866 87.003 94.8497C87.003 95.2129 87.0625 95.5463 87.1813 95.8501C87.3068 96.1472 87.4752 96.4014 87.6864 96.6127C87.9043 96.824 88.1553 96.9891 88.4392 97.1079C88.7297 97.2268 89.0401 97.2862 89.3702 97.2862ZM96.9497 98.554C96.5337 98.554 96.1541 98.4879 95.8107 98.3559C95.474 98.2172 95.1867 98.0191 94.949 97.7616C94.7113 97.5041 94.5264 97.1938 94.3944 96.8306C94.2623 96.4608 94.1963 96.0416 94.1963 95.5727V91.3039H95.5334V95.652C95.5334 95.8897 95.5631 96.1076 95.6225 96.3057C95.682 96.5038 95.7711 96.6754 95.89 96.8207C96.0088 96.966 96.1574 97.0815 96.3357 97.1674C96.5139 97.2466 96.7186 97.2862 96.9497 97.2862C97.1874 97.2862 97.3954 97.2466 97.5737 97.1674C97.752 97.0815 97.9006 96.966 98.0194 96.8207C98.1383 96.6754 98.2274 96.5038 98.2868 96.3057C98.3463 96.1076 98.376 95.8897 98.376 95.652V91.3039H99.7131V95.5727C99.7131 96.0151 99.647 96.4212 99.515 96.791C99.3895 97.1542 99.2046 97.4678 98.9603 97.7319C98.7226 97.9894 98.4321 98.1908 98.0887 98.3361C97.752 98.4813 97.3723 98.554 96.9497 98.554ZM102.602 91.3039H104.018L105.117 95.444L105.276 96.2066H105.355L105.563 95.444L106.583 92.2548H107.831L108.861 95.444L109.059 96.1967H109.138L109.287 95.444L110.317 91.3039H111.733L109.852 98.3955H108.564L107.455 94.9785L107.247 94.196H107.167L106.959 94.9785L105.85 98.3955H104.563L102.602 91.3039ZM112.804 91.3039H114.141V94.1366H117.122V91.3039H118.46V98.3955H117.122V95.4044H114.141V98.3955H112.804V91.3039ZM120.082 91.3039H121.419V98.3955H120.082V91.3039ZM123.047 91.3039H124.384V97.1277H127.385V98.3955H123.047V91.3039ZM130.705 98.554C130.401 98.554 130.11 98.5111 129.833 98.4252C129.556 98.3394 129.301 98.2106 129.07 98.0389C128.839 97.8673 128.638 97.6593 128.466 97.415C128.295 97.1641 128.159 96.8735 128.06 96.5434L129.318 96.0482C129.41 96.4047 129.572 96.7018 129.803 96.9396C130.034 97.1707 130.338 97.2862 130.714 97.2862C130.853 97.2862 130.985 97.2697 131.111 97.2367C131.243 97.1971 131.358 97.1442 131.457 97.0782C131.563 97.0056 131.646 96.9164 131.705 96.8108C131.764 96.7052 131.794 96.583 131.794 96.4443C131.794 96.3123 131.771 96.1934 131.725 96.0878C131.679 95.9821 131.599 95.8831 131.487 95.7906C131.381 95.6982 131.239 95.6091 131.061 95.5232C130.889 95.4374 130.675 95.3482 130.417 95.2558L129.982 95.0973C129.79 95.0313 129.595 94.9422 129.397 94.8299C129.206 94.7177 129.031 94.5823 128.872 94.4238C128.714 94.2654 128.582 94.0805 128.476 93.8692C128.377 93.6513 128.328 93.407 128.328 93.1363C128.328 92.8589 128.38 92.6014 128.486 92.3637C128.598 92.1194 128.753 91.9081 128.952 91.7298C129.156 91.5449 129.397 91.403 129.675 91.3039C129.958 91.1983 130.272 91.1455 130.615 91.1455C130.972 91.1455 131.279 91.195 131.537 91.294C131.801 91.3865 132.022 91.5086 132.2 91.6605C132.385 91.8058 132.534 91.9675 132.646 92.1458C132.758 92.3241 132.841 92.4925 132.893 92.6509L131.715 93.1462C131.649 92.9481 131.527 92.7698 131.348 92.6113C131.177 92.4528 130.939 92.3736 130.635 92.3736C130.345 92.3736 130.104 92.4429 129.912 92.5816C129.721 92.7137 129.625 92.8886 129.625 93.1065C129.625 93.3178 129.717 93.4994 129.902 93.6513C130.087 93.7965 130.381 93.9385 130.784 94.0772L131.23 94.2257C131.513 94.3248 131.771 94.4403 132.002 94.5724C132.24 94.6979 132.441 94.8497 132.606 95.028C132.778 95.2063 132.907 95.411 132.993 95.6421C133.085 95.8666 133.131 96.1274 133.131 96.4245C133.131 96.7943 133.055 97.1145 132.903 97.3853C132.758 97.6494 132.57 97.8673 132.339 98.0389C132.108 98.2106 131.847 98.3394 131.556 98.4252C131.266 98.5111 130.982 98.554 130.705 98.554ZM135.839 98.3955V92.5717H133.858V91.3039H139.157V92.5717H137.176V98.3955H135.839ZM65.2986 107.097L62.9117 103.304H64.5063L65.9226 105.651H66.0018L67.3687 103.304H68.9831L66.6357 107.097V110.396H65.2986V107.097ZM72.9714 110.554C72.4432 110.554 71.9512 110.458 71.4956 110.267C71.0466 110.075 70.6571 109.814 70.3269 109.484C69.9968 109.148 69.7359 108.755 69.5445 108.306C69.3596 107.85 69.2671 107.365 69.2671 106.85C69.2671 106.335 69.3596 105.853 69.5445 105.404C69.7359 104.948 69.9968 104.555 70.3269 104.225C70.6571 103.888 71.0466 103.624 71.4956 103.433C71.9512 103.241 72.4432 103.145 72.9714 103.145C73.4996 103.145 73.9883 103.241 74.4373 103.433C74.8929 103.624 75.2857 103.888 75.6159 104.225C75.946 104.555 76.2035 104.948 76.3884 105.404C76.5799 105.853 76.6757 106.335 76.6757 106.85C76.6757 107.365 76.5799 107.85 76.3884 108.306C76.2035 108.755 75.946 109.148 75.6159 109.484C75.2857 109.814 74.8929 110.075 74.4373 110.267C73.9883 110.458 73.4996 110.554 72.9714 110.554ZM72.9714 109.286C73.3015 109.286 73.6086 109.227 73.8925 109.108C74.183 108.989 74.434 108.824 74.6452 108.613C74.8631 108.401 75.0315 108.147 75.1504 107.85C75.2758 107.546 75.3386 107.213 75.3386 106.85C75.3386 106.487 75.2758 106.156 75.1504 105.859C75.0315 105.556 74.8631 105.298 74.6452 105.087C74.434 104.875 74.183 104.71 73.8925 104.592C73.6086 104.473 73.3015 104.413 72.9714 104.413C72.6413 104.413 72.3309 104.473 72.0404 104.592C71.7565 104.71 71.5055 104.875 71.2876 105.087C71.0763 105.298 70.908 105.556 70.7825 105.859C70.6637 106.156 70.6042 106.487 70.6042 106.85C70.6042 107.213 70.6637 107.546 70.7825 107.85C70.908 108.147 71.0763 108.401 71.2876 108.613C71.5055 108.824 71.7565 108.989 72.0404 109.108C72.3309 109.227 72.6413 109.286 72.9714 109.286ZM80.5509 110.554C80.1349 110.554 79.7553 110.488 79.4119 110.356C79.0752 110.217 78.7879 110.019 78.5502 109.762C78.3125 109.504 78.1276 109.194 77.9956 108.831C77.8635 108.461 77.7975 108.042 77.7975 107.573V103.304H79.1346V107.652C79.1346 107.89 79.1643 108.108 79.2237 108.306C79.2832 108.504 79.3723 108.675 79.4912 108.821C79.61 108.966 79.7586 109.082 79.9369 109.167C80.1151 109.247 80.3198 109.286 80.5509 109.286C80.7886 109.286 80.9966 109.247 81.1749 109.167C81.3532 109.082 81.5018 108.966 81.6206 108.821C81.7395 108.675 81.8286 108.504 81.888 108.306C81.9475 108.108 81.9772 107.89 81.9772 107.652V103.304H83.3143V107.573C83.3143 108.015 83.2482 108.421 83.1162 108.791C82.9907 109.154 82.8058 109.468 82.5615 109.732C82.3238 109.989 82.0333 110.191 81.6899 110.336C81.3532 110.481 80.9735 110.554 80.5509 110.554ZM87.1539 103.304H88.491V109.128H91.4921V110.396H87.1539V103.304ZM93.9799 104.572V106.216H96.8224V107.484H93.9799V109.128H97.1394V110.396H92.6428V103.304H97.1394V104.572H93.9799ZM100.637 103.304H102.162L104.826 110.396H103.351L102.766 108.702H100.033L99.4484 110.396H97.9726L100.637 103.304ZM102.331 107.474L101.697 105.701L101.439 104.839H101.36L101.102 105.701L100.469 107.474H102.331ZM105.855 103.304H108.44C108.796 103.304 109.12 103.36 109.41 103.472C109.701 103.585 109.949 103.74 110.153 103.938C110.365 104.136 110.526 104.374 110.639 104.651C110.751 104.922 110.807 105.219 110.807 105.542C110.807 105.78 110.767 106.005 110.688 106.216C110.609 106.421 110.5 106.609 110.361 106.78C110.223 106.945 110.061 107.094 109.876 107.226C109.691 107.352 109.496 107.451 109.292 107.523L109.282 107.593L111.183 110.316V110.396H109.648L107.816 107.731H107.192V110.396H105.855V103.304ZM108.43 106.503C108.734 106.503 108.981 106.411 109.173 106.226C109.371 106.041 109.47 105.806 109.47 105.523C109.47 105.397 109.447 105.275 109.401 105.156C109.361 105.037 109.298 104.932 109.212 104.839C109.127 104.747 109.018 104.674 108.886 104.621C108.76 104.562 108.615 104.532 108.45 104.532H107.192V106.503H108.43ZM112.195 103.304H113.75L116.602 108.058H116.681L116.602 106.691V103.304H117.929V110.396H116.523L113.512 105.374H113.433L113.512 106.741V110.396H112.195V103.304ZM120.016 102.67C120.214 102.888 120.415 103.155 120.62 103.472C120.825 103.789 121.01 104.143 121.175 104.532C121.346 104.922 121.485 105.344 121.591 105.8C121.703 106.249 121.759 106.718 121.759 107.206C121.759 107.695 121.703 108.167 121.591 108.623C121.485 109.072 121.346 109.491 121.175 109.88C121.01 110.27 120.825 110.623 120.62 110.94C120.415 111.257 120.214 111.525 120.016 111.743L119.035 111.069C119.465 110.534 119.808 109.947 120.065 109.306C120.329 108.666 120.462 107.966 120.462 107.206C120.462 106.447 120.329 105.747 120.065 105.107C119.808 104.466 119.465 103.878 119.035 103.344L120.016 102.67Z" fill="white"/>
</g>
<defs>
<clipPath id="clip0_1365_5986">
<rect width="184" height="136.491" fill="white" transform="translate(0.412109 0.461914)"/>
</clipPath>
</defs>
</svg>
