<svg width="178" height="130" viewBox="0 0 178 130" fill="none" xmlns="http://www.w3.org/2000/svg">
<g clip-path="url(#clip0_1365_6211)">
<path d="M162.119 59.477C160.827 59.477 158.889 59.7999 157.92 60.7689C157.274 61.0919 156.951 61.7379 156.951 62.0609C157.274 60.4459 157.274 58.831 157.274 56.893C157.274 56.247 157.274 55.601 157.274 54.9551C157.274 54.9551 157.92 55.601 158.566 56.247C159.212 56.57 160.181 56.893 161.473 55.924C162.442 54.9551 163.411 52.6941 163.734 50.7562C164.057 49.7872 164.057 48.8182 164.38 48.1722C164.38 47.5262 164.38 47.2032 164.38 47.2032C164.38 47.2032 163.411 47.2032 161.796 47.5262C160.504 47.8492 158.889 48.4952 157.92 49.4642C157.597 50.1102 157.274 50.4332 156.951 51.0791C156.628 48.4952 156.305 45.9113 155.982 43.6503C155.982 43.9733 155.982 43.9733 155.982 43.9733C155.982 43.9733 156.628 44.6193 157.274 44.9423C157.92 45.2653 158.889 45.2653 159.858 44.2963C160.181 43.6503 160.504 43.0043 160.827 42.0354C161.15 41.0664 161.15 40.0974 161.15 39.1284C161.15 38.1594 161.15 37.1905 161.15 36.5445C161.15 35.8985 161.15 35.5755 161.15 35.5755C161.15 35.5755 160.181 35.8985 158.889 36.2215C157.597 36.8675 156.305 37.5135 155.659 38.8054C155.659 39.1284 155.336 39.7744 155.336 40.4204C154.69 38.1594 154.367 35.8985 153.721 33.9605C153.398 33.3145 153.398 32.9916 153.075 32.3456C153.398 32.6686 153.398 32.9916 153.398 32.9916C153.398 32.9916 154.044 33.3145 154.69 33.6375C155.336 33.9605 156.305 33.6375 156.951 32.6686C157.274 32.0226 157.274 31.0536 157.597 30.4076C157.597 29.4386 157.597 28.4697 157.597 27.5007C157.597 26.5317 157.274 25.5627 157.274 25.2397C157.274 24.5937 156.951 24.2708 156.951 24.2708C156.951 24.2708 155.982 24.5937 155.013 25.2397C154.044 25.8857 152.752 26.8547 152.106 28.1467C152.106 28.4697 152.106 29.4386 152.106 30.0846C151.46 28.4697 150.815 26.8547 150.169 25.5627C149.523 24.2708 148.877 22.9788 148.231 22.0098C148.554 22.3328 148.877 22.6558 148.877 22.6558C148.877 22.6558 149.523 22.9788 150.169 22.9788C150.815 22.9788 151.783 22.6558 152.106 21.6868C152.429 20.3948 152.106 18.4569 151.783 16.5189C151.46 14.904 150.814 13.289 150.814 13.289C150.814 13.289 149.846 13.612 148.877 14.581C147.908 15.5499 146.939 16.5189 146.616 17.8109C146.293 18.7799 146.616 19.7489 146.939 20.3948C146.616 20.0718 146.293 19.4259 146.293 19.1029C145.97 18.7799 145.97 18.4569 145.647 18.4569C145.647 18.4569 145.97 18.1339 145.97 17.4879C145.97 16.8419 145.647 15.8729 144.678 14.258C144.355 13.612 143.386 12.966 142.74 12.32C142.094 11.674 141.448 11.028 140.802 10.7051C139.833 10.0591 138.864 9.41309 138.864 9.41309C138.864 9.41309 139.187 10.3821 140.156 11.997C140.479 12.643 140.802 13.612 141.448 14.258C141.771 14.904 142.417 15.8729 142.74 16.5189C143.709 17.8109 144.678 18.4569 145.324 18.4569C145.97 18.7799 146.293 18.7799 146.293 18.7799C146.293 19.1029 146.616 19.1029 146.939 19.4259C147.262 19.7489 147.262 20.0718 147.585 20.7178C146.939 20.0718 146.293 19.4259 145.324 19.4259C144.032 19.1029 142.74 19.7489 141.771 20.3948C140.802 21.0408 139.833 21.6868 139.833 21.6868C139.833 21.6868 140.802 22.6558 142.094 23.3018C143.386 24.2708 144.678 25.2397 145.97 25.5627C147.262 25.8857 147.908 25.2397 148.231 24.5937C148.554 23.9478 148.554 23.3018 148.554 23.3018C148.554 23.3018 148.554 22.9788 148.231 22.3328C148.877 23.3018 149.523 24.5937 150.169 25.8857C150.492 27.1777 151.46 28.7926 152.106 30.4076C151.783 29.7616 151.138 29.1156 150.169 28.7926C148.877 28.4697 147.262 28.7926 146.293 29.1156C145.001 29.4386 144.355 30.0846 144.355 30.0846C144.355 30.0846 144.678 30.4076 145.001 30.7306C145.001 31.0536 145.647 31.3766 145.97 32.0226C146.616 32.6686 147.262 33.3145 147.908 33.6375C148.554 34.2835 149.2 34.6065 149.846 34.9295C151.137 35.5755 151.783 34.9295 152.429 34.2835C153.075 33.6375 153.075 32.9916 153.075 32.9916C153.075 32.9916 153.075 32.6686 153.075 32.0226C153.398 32.6686 153.398 33.3145 153.721 33.9605C154.367 35.8985 155.013 38.1594 155.336 40.4204C155.013 39.7744 154.69 39.1284 153.721 38.8054C152.429 38.4824 150.815 38.4824 149.523 38.4824C148.231 38.8054 147.262 39.1284 147.262 39.1284C147.262 39.1284 147.585 39.4514 147.585 39.7744C147.908 40.0974 148.231 40.7434 148.554 41.3894C148.877 42.0353 149.523 42.6813 150.169 43.3273C150.815 43.9733 151.138 44.6193 151.783 44.9423C152.752 45.5883 153.721 45.2653 154.367 44.9423C155.013 44.2963 155.336 43.6503 155.336 43.6503C155.336 43.6503 155.336 43.3273 155.336 43.0043C155.659 45.5883 155.982 48.4952 156.305 51.0791C155.982 50.4332 155.659 49.7872 155.013 49.1412C154.044 48.1722 152.106 48.1722 150.814 48.1722C149.523 48.1722 148.231 48.4952 148.231 48.4952C148.231 48.4952 148.231 48.8182 148.554 49.4642C148.877 50.1102 149.2 50.7562 149.523 51.4021C150.169 53.0171 151.137 54.6321 152.106 55.601C153.075 56.57 154.044 56.247 155.013 55.924C155.659 55.601 156.305 54.9551 156.305 54.9551V54.6321C156.305 55.278 156.305 56.247 156.305 56.893C156.305 58.831 155.982 60.4459 155.982 62.3839C155.982 61.7379 155.659 61.0919 155.013 60.4459C154.044 59.477 152.429 58.831 151.138 58.508C149.846 58.185 148.554 58.185 148.554 58.185C148.554 58.185 148.554 58.508 148.877 59.154C148.877 59.7999 149.2 60.4459 149.523 61.4149C149.846 63.0299 150.492 64.9678 151.46 66.2598C152.429 67.5518 153.398 67.5518 154.044 67.2288C155.013 66.9058 155.659 66.2598 155.659 66.2598C155.659 66.2598 155.659 66.2598 155.659 65.9368C155.336 68.1978 154.69 70.7817 154.044 73.0427C154.044 72.3967 154.044 71.7507 153.398 71.1047C152.429 69.8127 151.138 69.1667 149.523 68.5207C148.231 68.1978 146.939 67.8748 146.939 67.8748C146.939 67.8748 146.939 68.1978 146.939 68.8437C146.939 69.4897 146.939 70.1357 147.262 71.1047C147.585 73.0427 147.585 74.9806 148.231 76.2726C148.877 77.5646 149.846 77.8875 150.814 77.5645C151.783 77.2416 152.429 76.9186 152.429 76.9186C151.783 78.8565 150.815 80.7945 150.169 82.7324C150.169 83.0554 149.846 83.0554 149.846 83.3784C149.846 82.7324 149.846 82.0864 149.523 81.4405C148.877 80.1485 147.262 78.8565 145.97 78.2105C144.678 77.5645 143.386 77.2416 143.386 77.2416C143.386 77.2416 143.386 77.5645 143.386 78.2105C143.386 78.8565 143.063 79.5025 143.063 80.4715C143.063 82.4094 142.74 84.3474 143.386 85.9624C143.709 87.2543 145.001 87.9003 145.97 87.9003C146.939 87.9003 147.585 87.5773 147.585 87.5773C146.616 89.5153 145.324 91.4532 144.032 93.0682C144.355 92.4222 144.355 91.7762 144.032 91.1302C143.709 89.5153 142.417 88.2233 141.125 87.2543C139.833 86.2854 138.864 85.6394 138.864 85.6394C138.864 85.6394 138.864 85.9624 138.541 86.6083C138.218 87.2543 138.218 87.9003 137.895 88.8693C137.572 89.8383 137.572 90.8073 137.249 91.7762C136.926 92.7452 136.926 93.7142 137.249 94.3602C137.572 95.9751 138.541 96.6211 139.51 96.6211C140.479 96.6211 141.125 96.6211 141.448 96.6211C140.156 98.2361 138.541 99.851 137.249 101.466C137.572 100.82 137.572 100.174 137.572 99.5281C137.572 97.9131 136.28 96.2981 135.311 95.0061C134.342 93.7142 133.05 93.0682 133.05 93.0682C133.05 93.0682 132.727 93.3912 132.727 94.0372C132.404 94.6832 132.081 95.3291 131.758 96.2981C131.435 96.6211 131.435 97.2671 131.112 97.5901C130.789 97.9131 130.789 98.5591 130.466 98.8821C130.143 99.851 129.82 100.82 129.82 101.466C129.82 103.081 130.789 103.727 131.758 104.05C132.081 104.373 132.727 104.373 133.05 104.373C133.373 104.373 133.373 104.373 133.373 104.373C131.758 105.665 130.143 106.957 128.528 108.249C128.851 107.603 129.174 106.957 129.174 106.311C129.497 104.696 128.528 102.758 127.559 101.466C126.59 100.174 125.621 99.2051 125.621 99.2051C125.621 99.2051 125.298 99.5281 124.975 100.174C124.652 100.82 124.006 101.466 123.683 102.435C123.037 103.404 122.714 104.05 122.068 105.019C121.422 105.988 121.099 106.957 121.099 107.603C120.776 109.218 121.422 110.187 122.391 110.51C123.037 110.833 124.006 111.156 124.329 111.156C122.714 112.125 120.776 113.094 119.161 114.063C119.484 113.417 120.13 113.094 120.13 112.125C120.453 110.51 120.13 108.572 119.484 106.957C118.838 105.342 118.192 104.373 118.192 104.373C118.192 104.373 117.869 104.696 117.546 105.019C117.223 105.342 116.577 106.311 115.931 106.957C115.608 107.28 115.285 107.603 114.962 108.249C114.639 108.572 114.316 108.895 113.993 109.541C113.347 110.51 112.701 111.156 112.378 112.125C111.732 113.74 112.378 114.709 113.347 115.355C113.993 116.001 114.639 116.001 114.962 116.324C113.024 116.97 111.409 117.616 109.471 118.262C110.117 117.939 110.44 117.293 110.763 116.647C111.409 115.032 111.409 113.094 110.763 111.156C110.44 109.541 109.794 108.249 109.794 108.249C109.794 108.249 109.471 108.572 108.825 108.895C108.179 109.218 107.533 109.864 106.565 110.51C105.596 111.156 104.95 111.802 103.981 112.448C103.012 113.094 102.366 114.063 102.043 114.709C101.074 116.324 101.72 117.293 102.366 118.262C103.012 118.908 103.658 119.231 103.981 119.554C102.366 119.877 100.751 120.2 99.1357 120.2C98.8127 120.2 98.8127 120.2 98.4897 120.2C99.1357 119.877 99.7817 119.554 100.105 118.908C101.074 117.293 101.397 115.355 101.074 113.417C101.074 111.802 100.428 110.187 100.428 110.187C100.428 110.187 100.105 110.51 99.4587 110.833C98.8127 111.156 97.8437 111.479 97.1977 112.125C95.2598 113.094 92.9988 114.386 92.0298 115.678C90.7379 116.97 91.0609 118.262 91.7068 119.231C92.3528 120.2 92.9988 120.523 92.9988 120.846V121.815C92.9988 121.815 92.0298 122.461 91.7068 123.43C91.0609 124.398 90.7379 125.69 92.3528 126.982C93.6448 128.274 96.5517 129.243 99.4587 129.889C100.751 130.212 102.043 130.212 103.012 130.212C103.981 130.212 104.627 130.212 104.627 130.212C104.627 130.212 104.627 128.92 103.981 126.982C103.335 125.367 102.689 123.43 101.074 122.138C100.751 121.815 100.428 121.815 100.428 121.492C101.72 121.492 103.012 121.169 104.304 120.846C103.981 121.169 103.981 121.492 103.658 121.815C103.335 122.784 103.012 124.075 104.627 125.044C105.273 125.69 106.565 126.013 107.856 126.336C109.148 126.659 110.44 126.659 111.732 126.659C113.024 126.659 114.316 126.659 115.285 126.659C116.254 126.659 116.577 126.659 116.577 126.659C116.577 126.659 116.254 125.367 115.608 123.753C114.962 122.138 113.67 120.523 112.055 119.554C111.732 119.231 111.409 119.231 111.086 119.231C112.378 118.908 113.67 118.262 115.285 117.939C115.285 118.262 114.962 118.585 114.962 119.231C114.639 120.2 114.962 121.492 116.577 122.138C117.546 122.461 118.515 122.784 119.807 122.784C120.453 122.784 121.099 122.784 121.745 122.784C122.391 122.784 123.037 122.784 123.683 122.461C124.975 122.138 125.944 122.138 126.913 121.815C127.882 121.492 128.205 121.492 128.205 121.492C128.205 121.492 127.559 120.2 126.59 118.908C125.621 117.616 124.006 116.001 122.391 115.355C122.068 115.355 121.745 115.032 121.422 115.032C122.714 114.386 124.006 113.74 125.621 112.771C125.621 113.094 125.298 113.417 125.298 114.063C125.298 115.032 125.621 116.324 127.236 116.647C128.205 116.97 129.174 116.97 130.466 116.647C131.758 116.324 133.05 116.001 134.019 115.678C135.311 115.355 136.28 114.709 136.926 114.386C137.572 114.063 138.218 113.74 138.218 113.74C138.218 113.74 137.572 112.771 136.28 111.479C134.988 110.187 133.373 109.218 131.758 108.895C131.435 108.895 131.112 108.895 130.466 108.895C131.758 107.926 133.05 106.957 134.342 105.665C134.342 105.988 134.342 106.634 134.342 106.957C134.342 107.926 134.988 108.895 136.603 109.218C137.572 109.218 138.541 109.218 139.51 108.572C140.156 108.249 140.802 108.249 141.125 107.926C141.771 107.603 142.094 107.28 142.74 107.28C143.709 106.634 144.678 106.311 145.324 105.665C145.97 105.342 146.293 105.019 146.293 105.019C146.293 105.019 145.647 104.05 144.355 103.081C143.063 102.112 141.448 101.143 139.51 101.466C139.187 101.466 138.541 101.466 138.218 101.789C139.51 100.497 140.802 99.2051 141.771 97.9131C141.771 98.2361 141.771 98.8821 142.094 99.2051C142.417 100.174 143.063 101.143 144.678 100.82C145.647 100.82 146.616 100.497 147.585 99.851C148.554 99.2051 149.523 98.5591 150.492 97.9131C151.46 97.2671 152.106 96.6211 152.752 95.9751C153.398 95.3291 153.721 95.0061 153.721 95.0061C153.721 95.0061 152.752 94.3602 151.46 93.7142C150.169 93.0682 148.231 92.4222 146.616 92.7452C145.97 92.7452 145.647 93.0682 145.324 93.3912C146.293 91.7762 147.585 90.1613 148.554 88.5463C148.554 88.8693 148.877 89.5153 148.877 89.8383C149.2 90.8072 150.169 91.4532 151.783 91.1302C153.398 90.8072 155.336 89.1923 156.951 87.2543C157.597 86.2854 158.243 85.6394 158.889 84.9934C159.212 84.3474 159.535 84.0244 159.535 84.0244C159.535 84.0244 158.566 83.3784 156.951 83.0554C155.336 82.7324 153.721 82.4094 152.106 83.0554C151.46 83.3784 151.137 83.3784 150.814 83.7014C150.814 83.7014 150.814 83.7014 150.814 83.3784C151.783 81.4405 152.429 79.8255 153.075 77.8875C153.075 78.2105 153.398 78.8565 153.721 79.1795C154.367 79.8255 155.336 80.4715 156.628 79.8255C157.92 79.1795 159.858 77.2416 160.827 75.3036C161.473 74.3346 161.796 73.6886 162.119 73.0427C162.442 72.3967 162.765 72.0737 162.765 72.0737C162.765 72.0737 161.796 71.7507 160.181 71.4277C158.889 71.1047 156.951 71.4277 155.659 72.0737C155.013 72.3967 154.69 72.7197 154.367 73.0427C155.013 70.7817 155.336 68.8437 155.659 66.5828C155.659 66.9058 155.982 67.5518 156.628 67.8748C157.274 68.5208 158.243 68.8437 159.535 68.1978C160.827 67.2288 162.119 65.2908 162.765 63.3529C163.088 62.3839 163.411 61.4149 163.734 60.7689C164.057 60.1229 164.057 59.7999 164.057 59.7999C164.057 59.7999 163.411 59.477 162.119 59.477Z" fill="white"/>
<path d="M85.8926 118.908C86.5386 117.939 86.5386 116.647 85.5696 115.355C84.2776 114.063 82.0167 112.771 80.4017 111.802C79.4327 111.156 78.4638 110.833 78.1408 110.51C77.4948 110.187 77.1718 109.864 77.1718 109.864C77.1718 109.864 76.8488 111.156 76.5258 113.094C76.5258 114.709 76.5258 116.97 77.4948 118.585C77.8178 118.908 77.8178 118.908 78.1408 119.231C76.8488 119.231 75.5568 118.908 74.2648 118.585C74.5878 118.262 74.9108 118.262 75.2338 117.939C75.8798 116.97 76.5258 116.001 75.5568 114.386C75.2338 113.74 74.2649 112.771 73.6189 112.125C72.9729 111.479 72.0039 110.51 71.0349 110.187C70.0659 109.541 69.42 108.895 68.774 108.572C68.128 108.249 67.805 107.926 67.805 107.926C67.805 107.926 67.159 109.218 66.836 110.833C66.513 112.448 66.19 114.709 66.836 116.324C66.836 116.647 67.159 116.97 67.482 117.293C66.19 116.97 64.8981 116.324 63.6061 116.001C63.9291 116.001 64.2521 115.678 64.5751 115.355C65.544 114.709 65.867 113.74 65.544 112.125C65.2211 111.479 64.5751 110.51 63.9291 109.541C63.6061 109.218 63.2831 108.572 62.9601 108.249C62.6371 107.926 62.3141 107.28 61.9911 106.957C61.3451 106.311 60.6992 105.665 60.3762 105.019C60.0532 104.696 59.7302 104.373 59.7302 104.373C59.7302 104.373 59.0842 105.665 58.4382 106.957C57.7922 108.572 57.1462 110.51 57.7922 112.125C57.7922 112.448 58.1152 112.771 58.1152 113.094C56.8232 112.448 55.5313 111.802 54.2393 110.833C54.5623 110.833 54.8853 110.51 55.5313 110.51C56.5002 109.864 57.1462 109.218 56.8232 107.603C56.8232 106.634 56.1773 105.988 55.8543 105.019C55.5313 104.05 54.8853 103.081 54.2393 102.435C53.5933 101.466 53.2703 100.82 52.9473 100.174C52.6243 99.5283 52.3013 99.2053 52.3013 99.2053C52.3013 99.2053 51.3324 100.174 50.3634 101.466C49.3944 102.758 48.4254 104.696 48.7484 106.311C48.7484 106.634 48.7484 106.957 49.0714 107.28C47.7794 106.311 46.4875 105.342 45.1955 104.373C45.5185 104.373 45.8415 104.373 46.4875 104.05C47.4565 103.727 48.4254 103.081 48.4254 101.466C48.4254 100.82 48.1024 99.8513 47.7794 98.8823C47.7794 98.5593 47.4565 97.9133 47.1335 97.5903C46.8105 97.2673 46.8105 96.6214 46.4875 96.2984C46.1645 95.3294 45.8415 94.6834 45.5185 94.0374C45.1955 93.3914 45.1955 93.0684 45.1955 93.0684C45.1955 93.0684 44.2265 93.7144 42.9346 95.0064C41.9656 96.2984 40.6736 97.9133 40.6736 99.5283C40.6736 99.8513 40.6736 100.174 40.6736 100.82C39.3816 99.5283 38.4127 98.2363 37.1207 96.9444C37.4437 96.9444 38.0897 96.9444 38.4127 96.9444C39.3816 96.6214 40.3506 96.2984 40.6736 94.6834C40.6736 94.0374 40.6736 93.0684 40.6736 92.0995C40.6736 91.1305 40.3506 90.1615 40.0276 89.1925C39.7046 88.2236 39.7046 87.5776 39.3816 86.9316C39.0586 86.2856 39.0586 85.9626 39.0586 85.9626C39.0586 85.9626 37.1207 85.9626 35.8287 86.9316C34.5367 87.9006 33.2448 89.1925 32.9218 90.8075C32.9218 91.1305 32.9218 91.7765 32.9218 92.0995C31.9528 90.4845 30.9838 89.1925 30.0148 87.5776C30.3378 87.5776 30.9838 87.9006 31.3068 87.9006C32.2758 87.9006 33.2448 87.5776 33.8908 85.9626C34.2138 84.6706 34.2138 82.4097 34.2138 80.4717C34.2138 79.5028 34.2138 78.8568 33.8908 78.2108C33.8908 77.5648 33.8908 77.2418 33.8908 77.2418C33.8908 77.2418 32.5988 77.2418 31.3068 78.2108C30.0148 78.8568 28.3999 80.1487 27.7539 81.4407C27.4309 81.7637 27.4309 82.4097 27.4309 82.7327C27.4309 82.7327 27.4309 82.7327 27.4309 82.4097C26.4619 80.7947 25.8159 78.8568 25.17 76.9188C25.4929 77.2418 25.8159 77.2418 26.4619 77.5648C27.4309 77.5648 28.3999 77.5648 29.0459 76.2728C29.6919 74.9809 30.0148 72.7199 30.0148 71.1049C30.0148 70.136 30.0148 69.49 30.3378 68.844C30.3378 68.198 30.3378 67.875 30.3378 67.875C30.3378 67.875 29.3689 68.198 28.0769 68.521C26.7849 68.844 25.17 69.813 24.201 71.1049C23.878 71.4279 23.878 72.0739 23.555 72.3969C22.909 70.459 22.586 68.198 22.263 66.2601C22.586 66.583 22.909 66.906 23.555 66.906C24.201 67.552 25.4929 67.552 26.1389 66.2601C27.1079 65.2911 27.7539 63.0301 28.0769 61.4152C28.3999 60.4462 28.3999 59.8002 28.7229 59.1542C28.7229 58.5082 29.0459 58.1852 29.0459 58.1852C29.0459 58.1852 27.7539 58.1852 26.4619 58.5082C25.17 58.8312 23.555 59.1542 22.586 60.4462C22.263 60.7692 21.94 61.4152 21.94 62.0611C21.617 60.4462 21.617 58.8312 21.617 57.2163C21.617 56.5703 21.617 55.9243 21.617 55.2783C21.617 55.2783 22.263 55.9243 22.909 56.2473C23.555 56.5703 24.524 56.8933 25.8159 55.9243C26.7849 54.9553 27.7539 53.3403 28.3999 51.7254C28.7229 51.0794 29.0459 50.1104 29.3689 49.7874C29.6919 49.1414 29.6919 48.8184 29.6919 48.8184C29.6919 48.8184 28.7229 48.4955 27.1079 48.4955C25.8159 48.4955 24.201 48.8184 22.909 49.4644C22.263 49.7874 21.94 50.4334 21.94 51.0794C21.94 48.4954 22.263 46.2345 22.586 43.9736C22.586 43.9736 22.263 44.9425 22.909 45.2655C23.555 45.9115 24.524 46.2345 25.4929 45.2655C26.1389 44.9425 26.7849 44.6195 27.4309 43.9736C28.0769 43.3276 28.3999 42.6816 29.0459 42.0356C29.3689 41.0666 29.6919 40.4206 30.0148 40.0976C30.3378 39.7746 30.3378 39.4517 30.3378 39.4517C30.3378 39.4517 29.3689 39.1287 28.0769 38.8057C26.7849 38.4827 25.17 38.4827 23.878 39.1287C23.555 39.4517 22.909 39.7747 22.586 40.4206C23.232 38.4827 23.555 36.2217 24.201 34.2838C24.524 33.6378 24.524 33.3148 24.847 32.6688C24.847 32.9918 24.847 33.3148 24.847 33.3148C24.847 33.3148 25.17 33.9608 25.4929 34.6068C26.1389 35.2528 26.7849 35.5757 28.0769 35.2528C28.7229 34.9298 29.3689 34.6068 30.0148 33.9608C30.6608 33.3148 31.3068 32.9918 31.6298 32.3458C32.2758 31.6998 32.5988 31.3768 32.9218 30.7309C33.2448 30.4079 33.5678 30.0849 33.5678 30.0849C33.5678 30.0849 32.5988 29.7619 31.3068 29.1159C30.3378 28.7929 28.7229 28.4699 27.4309 28.7929C26.7849 29.1159 26.1389 29.7619 25.8159 30.4079C26.4619 28.7929 27.1079 27.1779 27.7539 25.886C28.3999 24.594 29.0459 23.302 29.6919 22.333C29.3689 22.656 29.3689 23.302 29.3689 23.302C29.3689 23.302 29.3689 23.948 29.6919 24.594C30.3378 25.24 30.9838 25.886 32.2758 25.563C33.5678 25.24 34.8597 24.271 36.1517 23.302C37.4437 22.333 38.4127 21.6871 38.4127 21.6871C38.4127 21.6871 37.7667 21.0411 36.4747 20.3951C35.1827 19.7491 33.8908 19.1031 32.5988 19.4261C31.6298 19.4261 30.9838 20.0721 30.3378 20.7181C30.6608 20.3951 30.9838 20.0721 30.9838 19.4261C31.3068 19.4261 31.6298 19.1031 31.6298 18.7801C31.6298 18.7801 31.9528 18.7801 32.5988 18.4571C33.2448 18.1341 34.2138 17.8111 35.1827 16.5192C35.5057 15.8732 36.1517 15.2272 36.4747 14.2582C36.7977 13.6122 37.1207 12.6433 37.7667 11.9973C38.4127 11.0283 39.0586 9.73633 39.0586 9.73633C39.0586 9.73633 38.0897 10.3823 36.7977 11.3513C36.1517 11.6743 35.5057 12.3203 34.8597 12.9663C34.2138 13.6122 33.5678 14.2582 32.9218 14.9042C31.6298 16.1962 31.3068 17.1652 31.3068 17.8111C31.3068 18.4571 31.6298 18.7801 31.6298 18.7801C31.6298 19.1031 31.3068 19.1031 30.9838 19.4261C30.9838 20.0721 30.6608 20.3951 30.3378 20.7181C30.6608 20.0721 30.9838 19.1031 30.6608 18.1341C30.6608 16.8422 29.3689 15.8732 28.7229 14.9042C27.7539 14.2582 26.7849 13.6122 26.7849 13.6122C26.7849 13.6122 26.1389 15.2272 25.8159 16.8422C25.493 18.4571 25.17 20.7181 25.4929 22.0101C25.8159 23.302 26.7849 23.625 27.4309 23.302C28.0769 23.302 28.7229 22.979 28.7229 22.979C28.7229 22.979 29.3689 22.656 29.6919 22.0101C29.0459 23.302 28.3999 24.271 27.7539 25.886C26.7849 27.1779 26.1389 28.7929 25.4929 30.4079C25.8159 29.7619 25.8159 28.7929 25.4929 27.8239C24.847 26.8549 23.555 25.886 22.586 25.24C21.617 24.271 20.6481 23.948 20.6481 23.948C20.6481 23.948 20.6481 24.271 20.3251 24.917C20.3251 25.563 20.0021 26.5319 20.0021 27.1779C20.0021 28.1469 20.0021 29.1159 20.0021 30.0849C20.0021 31.0538 20.3251 31.6998 20.6481 32.3458C21.294 33.9608 21.94 33.9608 22.909 33.9608C23.555 33.6378 24.201 33.3148 24.201 33.3148C24.201 33.3148 24.524 32.9918 24.524 32.6688C24.524 32.9918 24.201 33.6378 24.201 34.2838C23.232 36.2217 22.586 38.4827 22.263 41.0666C22.263 40.0976 22.263 39.4517 21.617 38.4827C20.9711 37.1907 19.6791 36.5447 18.3871 35.8987C17.0951 35.5757 16.1262 35.2528 16.1262 35.2528C16.1262 35.2528 16.1262 35.5757 16.1262 36.2217C16.1262 36.8677 16.1262 37.8367 16.1262 38.8057C16.1262 39.7747 16.4492 41.0666 16.4492 41.7126C16.7721 42.6816 17.0951 43.3276 17.4181 43.9736C18.3871 45.2655 19.3561 44.9425 20.0021 44.6195C20.6481 44.2965 21.294 43.6506 21.294 43.6506C21.294 43.6506 21.294 43.3276 21.617 43.0046C20.9711 45.5885 20.6481 48.4955 20.6481 51.4024C20.6481 50.7564 20.3251 49.7874 19.6791 49.1414C18.7101 48.1725 17.0951 47.5265 15.8032 47.2035C14.5112 46.8805 13.2192 46.8805 13.2192 46.8805C13.2192 46.8805 13.2192 47.2035 13.2192 47.8495C13.2192 48.4954 13.5422 49.4644 13.8652 50.4334C14.1882 52.3714 15.1572 54.6323 16.1262 55.6013C17.0951 56.5703 18.0641 56.2473 19.0331 55.9243C19.6791 55.6013 20.3251 54.6323 20.3251 54.6323C20.3251 54.6323 20.3251 54.3093 20.3251 53.9863C20.3251 54.6323 20.3251 55.6013 20.3251 56.5703C20.3251 58.5082 20.6481 60.1232 20.6481 62.0611C20.3251 61.4152 20.0021 60.7692 19.3561 60.1232C18.0641 59.1542 16.4492 58.8312 15.1572 58.8312C13.8652 58.8312 12.5732 58.8312 12.5732 58.8312C12.5732 58.8312 12.5732 59.1542 12.8962 59.8002C13.2192 60.4462 13.5422 61.4152 13.8652 62.3841C14.8342 64.3221 15.8032 66.26 17.0951 67.229C18.3871 68.198 19.3561 67.552 20.0021 66.906C20.6481 66.26 20.9711 65.6141 20.9711 65.6141V65.2911C21.294 67.875 21.94 70.459 22.586 72.7199C22.263 72.0739 21.617 71.4279 20.9711 71.1049C19.6791 70.459 17.7411 70.459 16.4492 70.459C15.1572 70.7819 13.8652 71.1049 13.8652 71.1049C13.8652 71.1049 14.1882 71.4279 14.5112 72.0739C14.8342 72.7199 15.1572 73.6889 15.8032 74.3349C17.0951 76.2728 18.7101 77.8878 20.0021 78.5338C21.294 79.1798 22.263 78.5338 22.909 77.8878C24.201 78.2108 24.201 77.2418 24.201 77.2418C24.201 77.2418 24.201 77.2418 24.201 76.9188C24.847 78.8568 25.8159 80.7947 26.4619 82.7327C26.4619 83.0557 26.7849 83.3787 26.7849 83.7017C26.1389 83.0557 25.8159 82.7327 24.847 82.4097C23.232 81.7637 21.617 82.0867 20.0021 82.4097C18.7101 82.7327 17.4181 83.3787 17.4181 83.3787C17.4181 83.3787 17.7411 83.7017 18.0641 84.3476C18.3871 84.9936 19.3561 85.6396 20.0021 86.6086C21.617 88.2236 23.555 89.8385 25.17 90.1615C26.7849 90.4845 27.4309 89.8385 28.0769 88.8695C28.3999 87.9006 28.7229 87.2546 28.7229 87.2546C28.7229 87.2546 28.7229 87.2546 28.7229 86.9316C30.0148 88.8695 30.9838 91.1305 32.5988 92.7455C31.9528 92.4225 31.3068 92.0995 30.6608 91.7765C29.0459 91.4535 27.1079 92.0995 25.8159 92.7455C24.524 93.3914 23.555 94.0374 23.555 94.0374C23.555 94.0374 23.878 94.3604 24.524 95.0064C25.17 95.6524 25.8159 96.2984 26.7849 96.9444C27.7539 97.5903 28.7229 98.2363 29.6919 98.8823C30.6608 99.5283 31.6298 99.8513 32.5988 99.8513C34.2138 100.174 34.8597 99.2053 35.1827 98.2363C35.5057 97.2673 35.5057 96.2984 35.5057 96.2984C36.7977 97.9133 38.4127 99.5283 40.0276 101.143C39.3816 100.82 38.7357 100.497 37.7667 100.497C36.1517 100.497 34.2138 101.466 32.9218 102.112C31.6298 103.081 30.6608 104.05 30.6608 104.05C30.6608 104.05 30.9838 104.373 31.6298 104.696C32.2758 105.019 33.2448 105.665 34.2138 106.311C34.8597 106.634 35.1827 106.957 35.8287 106.957C36.4747 107.28 37.1207 107.28 37.4437 107.603C38.4127 107.926 39.7046 108.249 40.3506 108.249C41.9656 108.249 42.6116 106.957 42.6116 105.988C42.6116 105.342 42.6116 105.019 42.6116 104.696C42.6116 104.373 42.6116 104.05 42.6116 104.05C44.2265 105.342 45.8415 106.957 47.4565 107.926C46.8105 107.603 46.1645 107.603 45.1955 107.603C43.5805 107.926 41.9656 108.895 40.6736 110.187C39.3816 111.479 38.7356 112.448 38.7356 112.448C38.7356 112.448 39.0586 112.771 40.0276 113.094C40.6736 113.417 41.9656 113.74 42.9346 114.386C44.2265 114.709 45.5185 115.032 46.4875 115.355C47.7794 115.678 48.7484 115.678 49.7174 115.355C51.3324 115.032 51.6554 113.74 51.6554 112.771C51.6554 111.802 51.3324 111.156 51.3324 110.833C52.9473 111.802 54.8853 112.771 56.5002 113.74C55.8543 113.74 55.2083 113.74 54.2393 114.063C52.6243 114.709 51.0094 116.001 50.0404 117.616C49.0714 118.908 48.4254 120.2 48.4254 120.2C48.4254 120.2 49.0714 120.2 49.7174 120.523C50.6864 120.846 51.6554 121.169 52.9473 121.169C53.5933 121.169 54.2393 121.492 54.8853 121.492C55.5313 121.492 56.1773 121.492 56.8232 121.492C58.1152 121.492 59.0842 121.169 60.0532 120.846C61.6681 120.2 61.9911 118.908 61.6681 117.939C61.3451 116.97 61.0221 116.324 61.0221 116.324C62.9601 116.97 64.8981 117.616 66.513 118.262C65.867 118.262 65.2211 118.585 64.5751 118.908C62.9601 119.877 61.6681 121.492 61.0221 123.107C60.3762 124.722 60.0532 126.014 60.0532 126.014C60.0532 126.014 60.6992 126.014 61.3451 126.014C62.3141 126.014 63.2831 126.014 64.8981 126.014C66.19 126.014 67.482 126.014 68.774 125.691C70.0659 125.368 71.0349 125.045 72.0039 124.399C73.6189 123.43 73.6189 122.138 72.9729 121.169C72.6499 120.523 72.3269 119.877 72.0039 119.554C73.9419 119.877 75.5568 120.2 76.8488 120.523C77.1718 120.523 77.1718 120.523 77.4948 120.523C76.8488 120.846 76.2028 120.846 75.5568 121.492C73.9419 122.461 73.2959 124.722 72.6499 126.337C72.0039 127.952 72.0039 129.567 72.0039 129.567C72.0039 129.567 72.6499 129.567 73.6189 129.567C74.5878 129.567 75.8798 129.244 77.1718 129.244C79.7557 128.598 82.6627 127.629 84.2776 126.337C85.5696 125.045 85.2466 123.753 84.9236 122.784C84.2776 121.815 83.6316 121.169 83.6316 121.169V120.2C84.6006 120.2 85.2466 119.554 85.8926 118.908Z" fill="white"/>
<path d="M1.26855 91.7764L8.69739 77.2417L1.26855 62.707H176.331L168.902 77.2417L176.331 91.7764H1.26855Z" fill="#A60D60"/>
<path d="M175.686 63.0295L168.257 77.2412L175.363 91.1299H1.91574L9.34458 77.2412L2.23874 63.0295H175.686ZM177.301 62.0605H175.686H1.91574H0.300781L0.946767 63.6755L8.05261 77.2412L1.26976 90.8069L0.300781 92.4219H1.91574H175.363H176.978L176.332 90.8069L169.549 77.2412L176.332 63.6755L177.301 62.0605Z" fill="black"/>
<path d="M69.0386 37.2764H63.7027V24.2205H58.6223V20.616H59.3319C61.4038 20.616 63.0216 20.1903 64.0717 18.2603H69.0386V37.2764ZM81.5143 31.1174H69.5654V26.5763H81.5143V31.1174ZM91.5553 37.5602C85.2545 37.5602 82.0473 35.687 82.0473 31.2026V31.0323H87.5534V31.2026C87.5534 32.3095 88.1778 32.7068 91.6405 32.7068C94.7341 32.7068 95.245 32.1392 95.245 30.5782C95.245 28.9604 94.7341 28.3927 91.6405 28.3927C89.1712 28.3927 87.9224 28.5914 87.5534 29.5848H82.1324L83.2677 18.2603H99.7862V23.0569H88.0075L87.4967 26.9452H87.7805C88.2062 25.8099 90.0227 24.2205 93.9394 24.2205C98.8496 24.2205 100.921 26.5763 100.921 30.5214C100.921 34.7503 98.1968 37.5602 91.5553 37.5602ZM106 27.4277C102.85 27.4277 100.863 25.6964 100.863 22.6879C100.863 19.6794 102.85 17.9197 106 17.9197C109.151 17.9197 111.137 19.6794 111.137 22.6879C111.137 25.6964 109.151 27.4277 106 27.4277ZM106.767 37.2764H101.629L117.779 18.2603H122.916L106.767 37.2764ZM106 24.0219C107.107 24.0219 107.419 23.7948 107.419 22.6879C107.419 21.581 107.107 21.2972 106 21.2972C104.893 21.2972 104.581 21.581 104.581 22.6879C104.581 23.7948 104.893 24.0219 106 24.0219ZM118.517 37.5886C115.366 37.5886 113.38 35.8573 113.38 32.8487C113.38 29.8402 115.366 28.0805 118.517 28.0805C121.667 28.0805 123.654 29.8402 123.654 32.8487C123.654 35.8573 121.667 37.5886 118.517 37.5886ZM118.517 34.1827C119.624 34.1827 119.936 33.9556 119.936 32.8487C119.936 31.7418 119.624 31.458 118.517 31.458C117.41 31.458 117.098 31.7418 117.098 32.8487C117.098 33.9556 117.41 34.1827 118.517 34.1827Z" fill="white"/>
<path d="M43.8652 55.6562H38.9568V45.9554H43.8652C47.065 45.9554 49.092 47.7363 49.092 50.8058C49.092 53.8753 47.065 55.6562 43.8652 55.6562ZM43.8652 48.4023H41.6788V53.2093H43.8652C45.5881 53.2093 46.1818 52.9921 46.1818 50.8058C46.1818 48.6195 45.5881 48.4023 43.8652 48.4023ZM51.9551 55.6562H49.2331V45.9554H54.8943C57.4571 45.9554 58.8036 47.0268 58.8036 48.9236C58.8036 50.4583 58.0363 51.3705 56.183 51.6022V51.7469C57.182 52.0076 57.5005 52.4854 57.8625 53.2238L59.0643 55.6562H55.9223L54.764 53.2817C54.4165 52.5578 54.127 52.3551 53.07 52.3551H51.9551V55.6562ZM51.9551 48.4023V50.328H54.8654C55.6617 50.328 55.9513 50.1832 55.9513 49.3579C55.9513 48.5905 55.6617 48.4023 54.8654 48.4023H51.9551ZM61.3951 55.6562H58.3401L62.5245 45.9554H66.4193L70.6182 55.6562H67.4908L66.7523 53.8609H62.148L61.3951 55.6562ZM63.7407 50.0529L63.176 51.4139H65.7533L65.1886 50.0529L64.5515 48.4168H64.3633L63.7407 50.0529ZM76.093 55.6562H72.0534L70.0264 45.9554H73.067L73.8778 50.8927L74.1384 53.079H74.3266L74.7175 50.8927L76.0206 45.9554H80.1182L81.3054 50.8927L81.6529 53.079H81.8412L82.1307 50.8927L83.0429 45.9554H86.0256L83.8103 55.6562H79.7707L78.7572 51.5008L78.1201 48.4602H77.9319L77.2514 51.5008L76.093 55.6562ZM92.5222 55.6562H87.6138V45.9554H92.5222C95.722 45.9554 97.7491 47.7363 97.7491 50.8058C97.7491 53.8753 95.722 55.6562 92.5222 55.6562ZM92.5222 48.4023H90.3359V53.2093H92.5222C94.2452 53.2093 94.8388 52.9921 94.8388 50.8058C94.8388 48.6195 94.2452 48.4023 92.5222 48.4023ZM103.117 55.801C99.7434 55.801 97.7453 53.8319 97.7453 50.8058C97.7453 47.7797 99.7434 45.8106 103.117 45.8106C106.577 45.8106 108.547 47.7797 108.547 50.8058C108.547 53.8319 106.577 55.801 103.117 55.801ZM103.117 53.1948C105.086 53.1948 105.651 52.7315 105.651 50.8058C105.651 48.8801 105.086 48.4168 103.117 48.4168C101.148 48.4168 100.641 48.8801 100.641 50.8058C100.641 52.7315 101.148 53.1948 103.117 53.1948ZM114.456 55.6562H110.416L108.389 45.9554H111.43L112.241 50.8927L112.501 53.079H112.689L113.08 50.8927L114.384 45.9554H118.481L119.668 50.8927L120.016 53.079H120.204L120.494 50.8927L121.406 45.9554H124.388L122.173 55.6562H118.134L117.12 51.5008L116.483 48.4602H116.295L115.614 51.5008L114.456 55.6562ZM127.097 55.6562H124.375V45.9554H127.27L129.964 49.5896L131.382 51.8193H131.571L131.44 49.7054V45.9554H134.162V55.6562H131.267L128.4 51.9207L127.169 50.0095H126.981L127.097 51.8628V55.6562ZM139.162 55.801C136.194 55.801 134.384 54.7441 134.384 52.2827V52.1958H137.106V52.4998C137.106 53.1514 137.338 53.3251 139.162 53.3251C140.813 53.3251 140.987 53.1948 140.987 52.7605C140.987 52.413 140.798 52.2682 140.002 52.1668L136.962 51.7614C135.152 51.5153 134.24 50.5452 134.24 48.9815C134.24 47.4322 135.441 45.8106 138.945 45.8106C142.029 45.8106 143.506 47.1571 143.506 49.329V49.4158H140.784V49.1987C140.784 48.5037 140.48 48.272 138.656 48.272C137.266 48.272 136.962 48.4602 136.962 48.8801C136.962 49.1842 137.135 49.329 137.657 49.4014L140.697 49.8502C143.072 50.1977 143.709 51.4139 143.709 52.6591C143.709 54.3242 142.435 55.801 139.162 55.801Z" fill="white"/>
<path d="M31.1041 71.502H33.3177V81.1434H38.286V83.2422H31.1041V71.502ZM51.2482 83.5045C50.3737 83.5045 49.5593 83.346 48.8051 83.029C48.0617 82.712 47.4168 82.2802 46.8702 81.7337C46.3237 81.1762 45.8919 80.5258 45.5749 79.7824C45.2688 79.0282 45.1158 78.2247 45.1158 77.3721C45.1158 76.5195 45.2688 75.7215 45.5749 74.9782C45.8919 74.2239 46.3237 73.5735 46.8702 73.0269C47.4168 72.4694 48.0617 72.0322 48.8051 71.7152C49.5593 71.3982 50.3737 71.2397 51.2482 71.2397C52.1227 71.2397 52.9316 71.3982 53.6749 71.7152C54.4292 72.0322 55.0796 72.4694 55.6262 73.0269C56.1727 73.5735 56.599 74.2239 56.9051 74.9782C57.2221 75.7215 57.3806 76.5195 57.3806 77.3721C57.3806 78.2247 57.2221 79.0282 56.9051 79.7824C56.599 80.5258 56.1727 81.1762 55.6262 81.7337C55.0796 82.2802 54.4292 82.712 53.6749 83.029C52.9316 83.346 52.1227 83.5045 51.2482 83.5045ZM51.2482 81.4057C51.7948 81.4057 52.3031 81.3074 52.7731 81.1106C53.2541 80.9138 53.6695 80.6406 54.0193 80.2908C54.38 79.941 54.6587 79.5201 54.8555 79.0282C55.0632 78.5254 55.167 77.9733 55.167 77.3721C55.167 76.7709 55.0632 76.2243 54.8555 75.7324C54.6587 75.2296 54.38 74.8033 54.0193 74.4535C53.6695 74.1037 53.2541 73.8304 52.7731 73.6336C52.3031 73.4369 51.7948 73.3385 51.2482 73.3385C50.7016 73.3385 50.1879 73.4369 49.7069 73.6336C49.2368 73.8304 48.8215 74.1037 48.4607 74.4535C48.1109 74.8033 47.8322 75.2296 47.6245 75.7324C47.4277 76.2243 47.3293 76.7709 47.3293 77.3721C47.3293 77.9733 47.4277 78.5254 47.6245 79.0282C47.8322 79.5201 48.1109 79.941 48.4607 80.2908C48.8215 80.6406 49.2368 80.9138 49.7069 81.1106C50.1879 81.3074 50.7016 81.4057 51.2482 81.4057ZM64.1607 71.502H66.5055L68.3255 78.3559L68.5879 79.6185H68.719L69.0634 78.3559L70.7523 73.0761H72.8183L74.5235 78.3559L74.8515 79.6021H74.9826L75.2286 78.3559L76.9339 71.502H79.2786L76.1632 83.2422H74.0316L72.1952 77.5853L71.8508 76.2899H71.7197L71.3753 77.5853L69.5389 83.2422H67.4073L64.1607 71.502ZM96.4597 71.502H100.739C101.33 71.502 101.865 71.595 102.346 71.7808C102.827 71.9666 103.237 72.2235 103.576 72.5514C103.926 72.8794 104.194 73.2729 104.379 73.732C104.565 74.1802 104.658 74.6721 104.658 75.2077C104.658 75.6013 104.593 75.9729 104.461 76.3227C104.33 76.6616 104.15 76.9731 103.92 77.2573C103.691 77.5306 103.423 77.7766 103.117 77.9952C102.811 78.2029 102.488 78.3669 102.149 78.4871L102.133 78.6019L105.281 83.111V83.2422H102.74L99.7063 78.8314H98.6733V83.2422H96.4597V71.502ZM100.723 76.7982C101.226 76.7982 101.636 76.6452 101.953 76.3391C102.281 76.033 102.445 75.645 102.445 75.1749C102.445 74.9672 102.406 74.765 102.33 74.5682C102.264 74.3715 102.16 74.1966 102.018 74.0435C101.876 73.8905 101.696 73.7703 101.477 73.6828C101.269 73.5844 101.029 73.5352 100.756 73.5352H98.6733V76.7982H100.723ZM112.695 71.502H114.908V83.2422H112.695V71.502ZM126.932 83.5045C126.429 83.5045 125.948 83.4335 125.489 83.2914C125.03 83.1493 124.609 82.9361 124.226 82.6519C123.844 82.3677 123.51 82.0234 123.226 81.6189C122.942 81.2035 122.718 80.7225 122.554 80.176L124.636 79.3561C124.789 79.9464 125.057 80.4383 125.44 80.8318C125.822 81.2144 126.325 81.4057 126.948 81.4057C127.178 81.4057 127.396 81.3784 127.604 81.3238C127.823 81.2582 128.014 81.1707 128.178 81.0614C128.353 80.9412 128.49 80.7936 128.588 80.6187C128.686 80.4438 128.736 80.2416 128.736 80.012C128.736 79.7934 128.697 79.5966 128.621 79.4217C128.544 79.2468 128.413 79.0829 128.227 78.9298C128.052 78.7768 127.817 78.6292 127.522 78.4871C127.238 78.345 126.883 78.1974 126.456 78.0444L125.735 77.782C125.418 77.6727 125.095 77.5251 124.767 77.3393C124.45 77.1535 124.161 76.9294 123.898 76.667C123.636 76.4047 123.417 76.0986 123.243 75.7488C123.079 75.3881 122.997 74.9836 122.997 74.5355C122.997 74.0763 123.084 73.65 123.259 73.2565C123.445 72.852 123.702 72.5022 124.03 72.2071C124.368 71.901 124.767 71.666 125.227 71.502C125.697 71.3271 126.216 71.2397 126.784 71.2397C127.375 71.2397 127.883 71.3217 128.309 71.4856C128.746 71.6387 129.113 71.8409 129.408 72.0923C129.714 72.3328 129.96 72.6006 130.146 72.8958C130.331 73.1909 130.468 73.4697 130.556 73.732L128.604 74.5519C128.495 74.2239 128.293 73.9288 127.998 73.6664C127.713 73.4041 127.32 73.2729 126.817 73.2729C126.336 73.2729 125.937 73.3877 125.62 73.6172C125.303 73.8359 125.145 74.1255 125.145 74.4863C125.145 74.8361 125.298 75.1367 125.604 75.3881C125.91 75.6286 126.396 75.8636 127.063 76.0932L127.801 76.3391C128.271 76.5031 128.697 76.6944 129.08 76.913C129.473 77.1207 129.807 77.3721 130.08 77.6673C130.364 77.9624 130.577 78.3013 130.72 78.6839C130.873 79.0555 130.949 79.4873 130.949 79.9792C130.949 80.5914 130.823 81.1215 130.572 81.5697C130.331 82.007 130.02 82.3677 129.637 82.6519C129.255 82.9361 128.823 83.1493 128.342 83.2914C127.861 83.4335 127.391 83.5045 126.932 83.5045ZM138.839 71.502H141.053V76.5359H141.184L145.48 71.502H148.153V71.6332L143.906 76.4867L148.595 83.111V83.2422H145.89L142.397 78.2411L141.053 79.7988V83.2422H138.839V71.502Z" fill="black"/>
<path d="M79.5954 96.9404L80.6846 99.7725L83.7346 99.9904L81.3382 101.951L82.2096 105.001L79.5954 103.258L76.9811 105.001L77.6347 101.951L75.2383 99.9904L78.5061 99.7725L79.5954 96.9404Z" fill="white"/>
<path d="M102.689 96.9404L103.778 99.7725L107.046 99.9904L104.65 101.951L105.303 105.001L102.689 103.258L100.075 105.001L100.946 101.951L98.5498 99.9904L101.6 99.7725L102.689 96.9404Z" fill="white"/>
<path d="M91.1414 96.9404L92.2307 99.7725L95.2807 99.9904L92.8843 101.951L93.7557 105.001L91.1414 103.258L88.5272 105.001L89.3986 101.951L87.0022 99.9904L90.0522 99.7725L91.1414 96.9404Z" fill="white"/>
</g>
<path d="M75.4547 0.326172L76.544 2.98915L79.594 3.19399L77.1976 5.03759L78.069 7.90541L75.4547 6.26666L72.8405 7.90541L73.4941 5.03759L71.0977 3.19399L74.3655 2.98915L75.4547 0.326172Z" fill="white"/>
<path d="M98.5484 0.326172L99.6377 2.98915L102.906 3.19399L100.509 5.03759L101.163 7.90541L98.5484 6.26666L95.9342 7.90541L96.8056 5.03759L94.4092 3.19399L97.4591 2.98915L98.5484 0.326172Z" fill="white"/>
<path d="M87.0008 0.326172L88.0901 2.98915L91.14 3.19399L88.7436 5.03759L89.6151 7.90541L87.0008 6.26666L84.3866 7.90541L85.258 5.03759L82.8616 3.19399L85.9115 2.98915L87.0008 0.326172Z" fill="white"/>
<defs>
<clipPath id="clip0_1365_6211">
<rect width="177" height="120.153" fill="white" transform="translate(0.300781 9.41309)"/>
</clipPath>
</defs>
</svg>
