<svg width="130" height="42" viewBox="0 0 130 42" fill="none" xmlns="http://www.w3.org/2000/svg">
<path d="M11.4368 32.4682V39.3238H2.89844V10.4678H20.2245C33.1256 10.4678 32.1908 18.5699 32.4401 20.5643V22.3094C32.2531 25.5502 32.4401 32.3435 20.2245 32.4059H11.4368V32.4682ZM11.4368 18.009V24.927H20.2869C23.7147 24.8646 23.964 23.3065 23.964 22.3094V20.5643C23.964 19.6294 23.7147 17.9467 20.2869 17.9467H11.4368V18.009Z" fill="white"/>
<path d="M77.4995 24.5539L89.4034 10.4687H97.8795V24.4916L116.452 2.49121H126.549L97.9418 36.3332H89.4034V22.3726L77.5618 36.3955H69.0234V10.4687H77.4995V24.5539Z" fill="#00FF00"/>
<path d="M54.3168 10.4678H46.9002C45.2798 10.6547 34.6847 9.47059 34.6847 20.6266V26.2981C34.5601 37.1425 44.8435 36.27 46.9002 36.3946H54.3168C56.3735 36.27 66.5947 37.1425 66.5323 26.2981V20.6266C66.5947 9.71988 56.4981 10.6547 54.3168 10.4678ZM57.9939 26.3604C57.9939 27.7316 57.246 28.7911 54.0675 28.8534H47.1495C43.971 28.8534 43.2231 27.7316 43.2231 26.3604V20.5643C43.2231 19.1931 43.971 18.0713 47.1495 18.0713H54.0675C57.246 18.0713 57.9939 19.1931 57.9939 20.5643V26.3604Z" fill="white"/>
</svg>
